<?xml version="1.0" encoding="UTF-8" standalone="no"?>
<svg width="22px" height="19px" viewBox="0 0 22 19" version="1.1" xmlns="http://www.w3.org/2000/svg" xmlns:xlink="http://www.w3.org/1999/xlink" xmlns:sketch="http://www.bohemiancoding.com/sketch/ns">
    <!-- Generator: Sketch 3.5.2 (25235) - http://www.bohemiancoding.com/sketch -->
    <title>Shape</title>
    <desc>Created with Sketch.</desc>
    <defs></defs>
    <g id="Page-1" stroke="none" stroke-width="1" fill="none" fill-rule="evenodd" sketch:type="MSPage">
        <g id="home-rural" sketch:type="MSArtboardGroup" transform="translate(-162.000000, -460.000000)" fill="#C34500">
            <g id="//-CONTENT-//" sketch:type="MSLayerGroup" transform="translate(0.000000, 80.000000)">
                <g id="::-topics" transform="translate(135.000000, 225.000000)" sketch:type="MSShapeGroup">
                    <path d="M46.999,158 C46.999,156.345 45.653,155 43.999,155 C42.345,155 40.999,156.345 40.999,158 C40.999,159.654 42.345,161 43.999,161 C45.653,161 46.999,159.654 46.999,158 L46.999,158 Z M43.999,159 C43.448,159 42.999,158.551 42.999,158 C42.999,157.449 43.448,157 43.999,157 C44.55,157 44.999,157.449 44.999,158 C44.999,158.551 44.55,159 43.999,159 Z M43.999,161 C41.242,161 38.999,163.243 38.999,166 L38.999,168 C38.999,168.551 39.447,169 39.999,169 L40.999,169 L40.999,173 C40.999,173.551 41.447,174 41.999,174 L45.999,174 C46.551,174 46.999,173.551 46.999,173 L46.999,169 L47.999,169 C48.551,169 48.999,168.551 48.999,168 L48.999,166 C48.999,163.243 46.756,161 43.999,161 Z M46.999,167 L45.999,167 C45.447,167 44.999,167.448 44.999,168 L44.999,172 L42.999,172 L42.999,168 C42.999,167.448 42.551,167 41.999,167 L40.999,167 L40.999,166 C40.999,164.345 42.345,163 43.999,163 C45.653,163 46.999,164.345 46.999,166 L46.999,167 Z M34.999,158 C34.999,156.345 33.653,155 31.999,155 C30.345,155 28.999,156.345 28.999,158 C28.999,159.654 30.345,161 31.999,161 C33.653,161 34.999,159.654 34.999,158 Z M31.999,159 C31.448,159 30.999,158.551 30.999,158 C30.999,157.449 31.448,157 31.999,157 C32.55,157 32.999,157.449 32.999,158 C32.999,158.551 32.55,159 31.999,159 Z M35.454,163.801 C35.125,162.178 33.671,161 31.999,161 C30.327,161 28.874,162.178 28.557,163.746 C27.905,166.228 28.215,165.013 27.029,169.757 C26.955,170.052 27.02,170.365 27.204,170.607 C27.388,170.849 27.673,170.993 27.978,171 C27.978,171 28.723,171.015 29.31,171.018 C29.501,171.591 29.788,172.483 30.046,173.301 C30.176,173.717 30.563,174 30.999,174 L32.999,174 C33.436,174 33.822,173.717 33.953,173.301 C34.211,172.483 34.498,171.591 34.689,171.018 C35.276,171.015 36.021,171 36.021,171 C36.325,170.993 36.61,170.848 36.794,170.606 C36.978,170.364 37.043,170.051 36.969,169.756 C35.84,165.24 36.05,166.051 35.454,163.801 Z M33.998,169 C33.264,169 33.214,169 32.266,172 L31.732,172 C30.821,169.119 30.738,169 30.08,169 C30.002,169 29.504,169.019 29.274,169.018 L29.517,168.046 C29.97,166.23 29.97,166.23 30.238,165.214 L30.503,164.199 C30.643,163.515 31.286,163 31.999,163 C32.712,163 33.355,163.515 33.506,164.254 L33.758,165.214 C34.026,166.23 34.026,166.23 34.479,168.046 L34.722,169.018 C34.494,169.02 34.056,169 33.998,169 L33.998,169 Z" id="Shape"></path>
                </g>
            </g>
        </g>
    </g>
</svg>