<?xml version="1.0" encoding="UTF-8" standalone="no"?>
<svg width="22px" height="20px" viewBox="0 0 22 20" version="1.1" xmlns="http://www.w3.org/2000/svg" xmlns:xlink="http://www.w3.org/1999/xlink" xmlns:sketch="http://www.bohemiancoding.com/sketch/ns">
    <!-- Generator: Sketch 3.5.2 (25235) - http://www.bohemiancoding.com/sketch -->
    <title>Shape</title>
    <desc>Created with Sketch.</desc>
    <defs></defs>
    <g id="Page-1" stroke="none" stroke-width="1" fill="none" fill-rule="evenodd" sketch:type="MSPage">
        <g id="home-rural" sketch:type="MSArtboardGroup" transform="translate(-162.000000, -400.000000)" fill="#C34500">
            <g id="//-CONTENT-//" sketch:type="MSLayerGroup" transform="translate(0.000000, 80.000000)">
                <g id="::-topics" transform="translate(135.000000, 225.000000)" sketch:type="MSShapeGroup">
                    <path d="M37.995,112.71 C36.957,111.843 35.537,110.526 34.18,109 L31.558,109 C34.122,112.22 37.166,114.619 37.386,114.789 C37.566,114.93 37.783,115 38,115 C38.217,115 38.434,114.93 38.614,114.789 C38.81,114.637 41.261,112.705 43.61,110 L40.896,110 C39.729,111.202 38.641,112.165 37.995,112.71 Z M30.104,102 C30.043,101.662 30,101.327 30,101 C30,98.57 31.57,97 34,97 C35.289,97 36.352,97.938 36.787,99 L39.214,99 C39.649,97.938 40.712,97 42.001,97 C44.431,97 46.001,98.57 46.001,101 C46.001,101.653 45.868,102.324 45.651,103 L47.713,103 C47.886,102.332 48.001,101.663 48.001,101 C48.001,97.467 45.534,95 42.001,95 C40.407,95 38.93,95.837 38.001,97.08 C37.071,95.837 35.594,95 34,95 C30.467,95 28,97.467 28,101 C28,101.332 28.038,101.666 28.083,102 L30.104,102 Z M45.697,105 L43.208,106.659 L39.083,101.503 L35,105.586 L32,102.586 L29.586,105 L27,105 L27,107 L30.414,107 L32,105.415 L35,108.415 L38.917,104.497 L42.792,109.341 L46.303,107 L49,107 L49,105 L45.697,105 Z" id="Shape"></path>
                </g>
            </g>
        </g>
    </g>
</svg>