<?xml version="1.0" encoding="UTF-8" standalone="no"?>
<svg width="27px" height="20px" viewBox="0 0 27 20" version="1.1" xmlns="http://www.w3.org/2000/svg" xmlns:xlink="http://www.w3.org/1999/xlink">
    <!-- Generator: Sketch 3.6.1 (26313) - http://www.bohemiancoding.com/sketch -->
    <title>icn-ore</title>
    <desc>Created with Sketch.</desc>
    <defs></defs>
    <g id="Page-1" stroke="none" stroke-width="1" fill="none" fill-rule="evenodd">
        <g id="explore-topics" transform="translate(-252.000000, -639.000000)" fill="#FFFFFF">
            <g id="//-CONTENT-//" transform="translate(135.000000, 110.000000)">
                <g id="::-places" transform="translate(0.000000, 460.000000)">
                    <g id="::-options">
                        <path d="M143.822426,72.8939745 C143.953241,72.5152692 143.853786,72.0009707 143.592754,71.6975286 L142.588946,70.532741 C142.346133,70.250504 141.896345,70.0459195 141.519133,70.0459195 L135.683548,70.1713582 C135.389364,70.1779288 134.936889,70.2454267 134.653159,70.3257672 L129.205835,71.8588068 C129.002744,71.9167476 128.627922,71.9588591 128.402431,71.9484059 L126.699153,71.8588068 C126.386452,71.8414844 125.918148,71.9086836 125.626652,72.0090346 L125.3032,72.1198387 C125.15566,72.1700142 124.82713,72.1646382 124.680785,72.1078922 L124.20591,71.9260061 C124.073901,71.874636 123.894703,71.6858807 123.851098,71.5499888 L123.428788,70.2466214 C123.298272,69.8455163 122.884025,69.5184798 122.463209,69.4853282 L122.389439,69.4799522 C122.219201,69.466811 122.039704,69.374524 122.002968,69.3309191 C121.848559,69.1239453 121.563634,69 121.238987,69 C121.129378,69 121.022456,69.0143358 120.919716,69.0436049 L120.237568,69.2335548 C119.829893,69.347047 119.488222,69.7505413 119.443422,70.1728515 L118.418409,79.8405884 C118.393321,80.0726499 118.310293,80.4579258 118.236523,80.6798327 L117.06845,84.1936086 C116.956451,84.5355783 116.983928,85.0394236 117.135948,85.3664601 L117.181942,85.464123 C117.27184,85.6606436 117.366815,86.0196371 117.383839,86.2346748 L117.517043,87.8797133 C117.554077,88.346823 117.951299,88.717763 118.419305,88.7228403 L141.962051,89 L141.972505,89 C142.44499,89 142.838031,88.6147241 142.84729,88.1422385 L143.020216,79.2832823 C143.027981,78.8741133 142.763067,78.4204435 142.402879,78.2266109 L142.166636,78.0999776 C142.1075,78.0683193 142.067778,77.968267 142.090178,77.9046517 L143.822426,72.8939745 Z" id="icn-ore"></path>
                    </g>
                </g>
            </g>
        </g>
    </g>
</svg>