<?xml version="1.0" encoding="UTF-8" standalone="no"?>
<svg width="23px" height="18px" viewBox="0 0 23 18" version="1.1" xmlns="http://www.w3.org/2000/svg" xmlns:xlink="http://www.w3.org/1999/xlink">
    <!-- Generator: Sketch 3.6.1 (26313) - http://www.bohemiancoding.com/sketch -->
    <title>icn-layers</title>
    <desc>Created with Sketch.</desc>
    <defs></defs>
    <g id="Page-1" stroke="none" stroke-width="1" fill="none" fill-rule="evenodd">
        <g id="explore-places" transform="translate(-604.000000, -391.000000)" fill="#C34500">
            <g id="//-CONTENT-//" transform="translate(135.000000, 110.000000)">
                <g id="::-places" transform="translate(0.000000, 210.000000)">
                    <g id="::-options">
                        <path d="M479.406574,81.8014062 C479.912824,82.1535313 480.587824,82.1535313 481.094074,81.8014062 L491.318074,75.8602812 C491.583574,75.6757812 491.554324,75.2775312 491.264074,75.1335313 L480.908449,71.1544062 C480.494449,70.9485313 480.006199,70.9485313 479.592199,71.1544062 L469.236574,75.1335313 C468.946324,75.2764062 468.917074,75.6757812 469.182574,75.8602812 L479.406574,81.8014062 L479.406574,81.8014062 Z M491.264074,80.9126562 L488.467324,79.5255313 L482.026699,83.2684062 C481.499074,83.6160312 480.885949,83.7982813 480.250324,83.7982813 C479.614699,83.7982813 479.001574,83.6149063 478.473949,83.2684062 L472.037824,79.5232812 L469.236574,80.9115312 C468.946324,81.0555313 468.917074,81.4537812 469.182574,81.6382813 L479.406574,88.7359062 C479.912824,89.0880313 480.587824,89.0880313 481.094074,88.7359062 L491.318074,81.6382813 C491.583574,81.4549062 491.554324,81.0566563 491.264074,80.9126562 L491.264074,80.9126562 Z" id="icn-layers"></path>
                    </g>
                </g>
            </g>
        </g>
    </g>
</svg>