<?xml version="1.0" encoding="UTF-8" standalone="no"?>
<svg width="16px" height="16px" viewBox="0 0 16 16" version="1.1" xmlns="http://www.w3.org/2000/svg" xmlns:xlink="http://www.w3.org/1999/xlink">
    <!-- Generator: Sketch 3.6.1 (26313) - http://www.bohemiancoding.com/sketch -->
    <title>icn-share</title>
    <desc>Created with Sketch.</desc>
    <defs></defs>
    <g id="Page-1" stroke="none" stroke-width="1" fill="none" fill-rule="evenodd">
        <g id="explore-places-all" transform="translate(-1072.000000, -818.000000)" fill="#D1CDC7">
            <g id="//-FEED-//" transform="translate(135.000000, 780.000000)">
                <g id="::-actions" transform="translate(857.000000, 30.000000)">
                    <path d="M92.25,17.25 C91.34775,17.25 90.54,17.6506875 89.9896875,18.2814375 L86.1830625,16.378125 C86.2261875,16.175625 86.25,15.96525 86.25,15.75 C86.25,15.53475 86.2261875,15.324375 86.1830625,15.121875 L89.989875,13.2185625 C90.5398125,13.8495 91.34775,14.25 92.25,14.25 C93.90675,14.25 95.25,12.90675 95.25,11.25 C95.25,9.59325 93.90675,8.25 92.25,8.25 C90.59325,8.25 89.25,9.59325 89.25,11.25 C89.25,11.46525 89.2738125,11.675625 89.3169375,11.878125 L85.5103125,13.7814375 C84.9601875,13.1505 84.152625,12.75 83.25,12.75 C81.59325,12.75 80.25,14.09325 80.25,15.75 C80.25,17.40675 81.59325,18.75 83.25,18.75 C84.152625,18.75 84.96,18.3493125 85.5103125,17.7185625 L89.3169375,19.621875 C89.2738125,19.824375 89.25,20.03475 89.25,20.25 C89.25,21.90675 90.59325,23.25 92.25,23.25 C93.90675,23.25 95.25,21.90675 95.25,20.25 C95.25,18.59325 93.90675,17.25 92.25,17.25 L92.25,17.25 Z M92.25,9.75 C93.078375,9.75 93.75,10.421625 93.75,11.25 C93.75,12.078375 93.078375,12.75 92.25,12.75 C91.421625,12.75 90.75,12.078375 90.75,11.25 C90.75,10.421625 91.421625,9.75 92.25,9.75 L92.25,9.75 Z M83.25,17.25 C82.421625,17.25 81.75,16.578375 81.75,15.75 C81.75,14.921625 82.421625,14.25 83.25,14.25 C84.078375,14.25 84.75,14.921625 84.75,15.75 C84.75,16.578375 84.078375,17.25 83.25,17.25 L83.25,17.25 Z M92.25,21.75 C91.421625,21.75 90.75,21.078375 90.75,20.25 C90.75,19.421625 91.421625,18.75 92.25,18.75 C93.078375,18.75 93.75,19.421625 93.75,20.25 C93.75,21.078375 93.078375,21.75 92.25,21.75 L92.25,21.75 Z" id="icn-share"></path>
                </g>
            </g>
        </g>
    </g>
</svg>