<?xml version="1.0" encoding="UTF-8" standalone="no"?>
<svg width="199px" height="50px" viewBox="0 0 199 50" version="1.1" xmlns="http://www.w3.org/2000/svg" xmlns:xlink="http://www.w3.org/1999/xlink" xmlns:sketch="http://www.bohemiancoding.com/sketch/ns">
    <!-- Generator: Sketch 3.5.2 (25235) - http://www.bohemiancoding.com/sketch -->
    <title>Iogo</title>
    <desc>Created with Sketch.</desc>
    <defs></defs>
    <g id="Page-2" stroke="none" stroke-width="1" fill="none" fill-rule="evenodd" sketch:type="MSPage">
        <g id="Iogo" sketch:type="MSLayerGroup">
            <g id="::-mark" sketch:type="MSShapeGroup">
                <g id="::-cali" transform="translate(5.000000, 43.220339)" fill="#98BE85">
                    <path d="M0.450733753,1.72008315 L2.1254717,1.72008315 L2.1254717,0.0162669225 L0.450733753,0.0162669225 L0.450733753,1.72008315 Z" id="Fill-304"></path>
                    <path d="M3.17610063,1.72008315 L4.85083857,1.72008315 L4.85083857,0.0162669225 L3.17610063,0.0162669225 L3.17610063,1.72008315 Z" id="Fill-305"></path>
                    <path d="M5.90146751,1.71980599 L7.57620545,1.71980599 L7.57620545,0.0159897665 L5.90146751,0.0159897665 L5.90146751,1.71980599 Z" id="Fill-306"></path>
                    <path d="M8.62683438,1.71980599 L10.3015723,1.71980599 L10.3015723,0.0159897665 L8.62683438,0.0159897665 L8.62683438,1.71980599 Z" id="Fill-307"></path>
                    <path d="M11.3522013,1.72008315 L13.0269392,1.72008315 L13.0269392,0.0162669225 L11.3522013,0.0162669225 L11.3522013,1.72008315 Z" id="Fill-308"></path>
                    <path d="M14.0775681,1.72008315 L15.7523061,1.72008315 L15.7523061,0.0162669225 L14.0775681,0.0162669225 L14.0775681,1.72008315 Z" id="Fill-309"></path>
                    <path d="M16.802935,1.71980599 L18.477673,1.71980599 L18.477673,0.0159897665 L16.802935,0.0159897665 L16.802935,1.71980599 Z" id="Fill-310"></path>
                    <path d="M0.450733753,4.19411577 L2.1254717,4.19411577 L2.1254717,2.49029954 L0.450733753,2.49029954 L0.450733753,4.19411577 Z" id="Fill-311"></path>
                    <path d="M3.17610063,4.1939079 L4.85083857,4.1939079 L4.85083857,2.49009167 L3.17610063,2.49009167 L3.17610063,4.1939079 Z" id="Fill-312"></path>
                    <path d="M5.90146751,4.1939079 L7.57620545,4.1939079 L7.57620545,2.49009167 L5.90146751,2.49009167 L5.90146751,4.1939079 Z" id="Fill-313"></path>
                    <path d="M8.62683438,4.1939079 L10.3015723,4.1939079 L10.3015723,2.49009167 L8.62683438,2.49009167 L8.62683438,4.1939079 Z" id="Fill-314"></path>
                    <path d="M11.3522013,4.1939079 L13.0269392,4.1939079 L13.0269392,2.49009167 L11.3522013,2.49009167 L11.3522013,4.1939079 Z" id="Fill-315"></path>
                    <path d="M14.0775681,4.19411577 L15.7523061,4.19411577 L15.7523061,2.49029954 L14.0775681,2.49029954 L14.0775681,4.19411577 Z" id="Fill-316"></path>
                    <path d="M16.802935,4.1939079 L18.477673,4.1939079 L18.477673,2.49009167 L16.802935,2.49009167 L16.802935,4.1939079 Z" id="Fill-317"></path>
                    <path d="M3.17610063,6.66773265 L4.85151992,6.66773265 L4.85151992,4.96391643 L3.17610063,4.96391643 L3.17610063,6.66773265 Z" id="Fill-318"></path>
                    <path d="M5.90146751,6.66773265 L7.57620545,6.66773265 L7.57620545,4.96391643 L5.90146751,4.96391643 L5.90146751,6.66773265 Z" id="Fill-319"></path>
                    <path d="M11.3522013,6.66773265 L13.0269392,6.66773265 L13.0269392,4.96391643 L11.3522013,4.96391643 L11.3522013,6.66773265 Z" id="Fill-320"></path>
                    <path d="M14.0775681,6.66773265 L15.7529874,6.66773265 L15.7529874,4.96391643 L14.0775681,4.96391643 L14.0775681,6.66773265 Z" id="Fill-321"></path>
                    <path d="M16.802935,6.66773265 L18.477673,6.66773265 L18.477673,4.96391643 L16.802935,4.96391643 L16.802935,6.66773265 Z" id="Fill-322"></path>
                </g>
                <g id="::-oregon" fill-opacity="0.5" fill="#244068">
                    <path d="M2.72536688,1.95256369 L4.40078616,1.95256369 L4.40078616,0.248747468 L2.72536688,0.248747468 L2.72536688,1.95256369 Z" id="Fill-1"></path>
                    <path d="M5.45073375,1.95256369 L7.12615304,1.95256369 L7.12615304,0.248747468 L5.45073375,0.248747468 L5.45073375,1.95256369 Z" id="Fill-2"></path>
                    <path d="M8.17610063,1.95256369 L9.85151992,1.95256369 L9.85151992,0.248747468 L8.17610063,0.248747468 L8.17610063,1.95256369 Z" id="Fill-3"></path>
                    <path d="M38.1551363,1.95256369 L39.8305556,1.95256369 L39.8305556,0.248747468 L38.1551363,0.248747468 L38.1551363,1.95256369 Z" id="Fill-4"></path>
                    <path d="M40.8805031,1.95256369 L42.5552411,1.95256369 L42.5552411,0.248747468 L40.8805031,0.248747468 L40.8805031,1.95256369 Z" id="Fill-5"></path>
                    <path d="M43.60587,1.95256369 L45.2812893,1.95256369 L45.2812893,0.248747468 L43.60587,0.248747468 L43.60587,1.95256369 Z" id="Fill-6"></path>
                    <path d="M46.3312369,1.95256369 L48.0059748,1.95256369 L48.0059748,0.248747468 L46.3312369,0.248747468 L46.3312369,1.95256369 Z" id="Fill-7"></path>
                    <path d="M49.0566038,1.95256369 L50.7320231,1.95256369 L50.7320231,0.248747468 L49.0566038,0.248747468 L49.0566038,1.95256369 Z" id="Fill-8"></path>
                    <path d="M51.7819706,1.95256369 L53.4573899,1.95256369 L53.4573899,0.248747468 L51.7819706,0.248747468 L51.7819706,1.95256369 Z" id="Fill-9"></path>
                    <path d="M2.72536688,4.42618058 L4.40010482,4.42618058 L4.40010482,2.72236435 L2.72536688,2.72236435 L2.72536688,4.42618058 Z" id="Fill-10"></path>
                    <path d="M5.45073375,4.42618058 L7.1254717,4.42618058 L7.1254717,2.72236435 L5.45073375,2.72236435 L5.45073375,4.42618058 Z" id="Fill-11"></path>
                    <path d="M8.17610063,4.42618058 L9.85083857,4.42618058 L9.85083857,2.72236435 L8.17610063,2.72236435 L8.17610063,4.42618058 Z" id="Fill-12"></path>
                    <path d="M10.9014675,4.42618058 L12.5762055,4.42618058 L12.5762055,2.72236435 L10.9014675,2.72236435 L10.9014675,4.42618058 Z" id="Fill-13"></path>
                    <path d="M32.7044025,4.42618058 L34.3791405,4.42618058 L34.3791405,2.72236435 L32.7044025,2.72236435 L32.7044025,4.42618058 Z" id="Fill-14"></path>
                    <path d="M35.4297694,4.42618058 L37.1045073,4.42618058 L37.1045073,2.72236435 L35.4297694,2.72236435 L35.4297694,4.42618058 Z" id="Fill-15"></path>
                    <path d="M38.1551363,4.42618058 L39.8298742,4.42618058 L39.8298742,2.72236435 L38.1551363,2.72236435 L38.1551363,4.42618058 Z" id="Fill-16"></path>
                    <path d="M40.8805031,4.42618058 L42.5552411,4.42618058 L42.5552411,2.72236435 L40.8805031,2.72236435 L40.8805031,4.42618058 Z" id="Fill-17"></path>
                    <path d="M43.60587,4.42618058 L45.280608,4.42618058 L45.280608,2.72236435 L43.60587,2.72236435 L43.60587,4.42618058 Z" id="Fill-18"></path>
                    <path d="M46.3312369,4.42618058 L48.0059748,4.42618058 L48.0059748,2.72236435 L46.3312369,2.72236435 L46.3312369,4.42618058 Z" id="Fill-19"></path>
                    <path d="M49.0566038,4.426042 L50.7313417,4.426042 L50.7313417,2.72222578 L49.0566038,2.72222578 L49.0566038,4.426042 Z" id="Fill-20"></path>
                    <path d="M51.7819706,4.42618058 L53.4567086,4.42618058 L53.4567086,2.72236435 L51.7819706,2.72236435 L51.7819706,4.42618058 Z" id="Fill-21"></path>
                    <path d="M54.5073375,4.42618058 L56.1820755,4.42618058 L56.1820755,2.72236435 L54.5073375,2.72236435 L54.5073375,4.42618058 Z" id="Fill-22"></path>
                    <path d="M2.72536688,6.89979746 L4.40010482,6.89979746 L4.40010482,5.19598124 L2.72536688,5.19598124 L2.72536688,6.89979746 Z" id="Fill-23"></path>
                    <path d="M5.45073375,6.89979746 L7.1254717,6.89979746 L7.1254717,5.19598124 L5.45073375,5.19598124 L5.45073375,6.89979746 Z" id="Fill-24"></path>
                    <path d="M8.17610063,6.89979746 L9.85083857,6.89979746 L9.85083857,5.19598124 L8.17610063,5.19598124 L8.17610063,6.89979746 Z" id="Fill-25"></path>
                    <path d="M10.9014675,6.89979746 L12.5762055,6.89979746 L12.5762055,5.19598124 L10.9014675,5.19598124 L10.9014675,6.89979746 Z" id="Fill-26"></path>
                    <path d="M16.3522013,6.89979746 L18.0269392,6.89979746 L18.0269392,5.19598124 L16.3522013,5.19598124 L16.3522013,6.89979746 Z" id="Fill-27"></path>
                    <path d="M19.0775681,6.89986675 L20.7523061,6.89986675 L20.7523061,5.19605053 L19.0775681,5.19605053 L19.0775681,6.89986675 Z" id="Fill-28"></path>
                    <path d="M21.802935,6.89979746 L23.477673,6.89979746 L23.477673,5.19598124 L21.802935,5.19598124 L21.802935,6.89979746 Z" id="Fill-29"></path>
                    <path d="M24.5283019,6.89979746 L26.2030398,6.89979746 L26.2030398,5.19598124 L24.5283019,5.19598124 L24.5283019,6.89979746 Z" id="Fill-30"></path>
                    <path d="M27.2536688,6.89979746 L28.9284067,6.89979746 L28.9284067,5.19598124 L27.2536688,5.19598124 L27.2536688,6.89979746 Z" id="Fill-31"></path>
                    <path d="M29.9790356,6.89979746 L31.6537736,6.89979746 L31.6537736,5.19598124 L29.9790356,5.19598124 L29.9790356,6.89979746 Z" id="Fill-32"></path>
                    <path d="M32.7044025,6.89979746 L34.3791405,6.89979746 L34.3791405,5.19598124 L32.7044025,5.19598124 L32.7044025,6.89979746 Z" id="Fill-33"></path>
                    <path d="M35.4297694,6.89979746 L37.1045073,6.89979746 L37.1045073,5.19598124 L35.4297694,5.19598124 L35.4297694,6.89979746 Z" id="Fill-34"></path>
                    <path d="M38.1551363,6.89979746 L39.8298742,6.89979746 L39.8298742,5.19598124 L38.1551363,5.19598124 L38.1551363,6.89979746 Z" id="Fill-35"></path>
                    <path d="M40.8805031,6.89979746 L42.5552411,6.89979746 L42.5552411,5.19598124 L40.8805031,5.19598124 L40.8805031,6.89979746 Z" id="Fill-36"></path>
                    <path d="M43.60587,6.89979746 L45.280608,6.89979746 L45.280608,5.19598124 L43.60587,5.19598124 L43.60587,6.89979746 Z" id="Fill-37"></path>
                    <path d="M46.3312369,6.89979746 L48.0059748,6.89979746 L48.0059748,5.19598124 L46.3312369,5.19598124 L46.3312369,6.89979746 Z" id="Fill-38"></path>
                    <path d="M49.0566038,6.89979746 L50.7313417,6.89979746 L50.7313417,5.19598124 L49.0566038,5.19598124 L49.0566038,6.89979746 Z" id="Fill-39"></path>
                    <path d="M51.7819706,6.89979746 L53.4567086,6.89979746 L53.4567086,5.19598124 L51.7819706,5.19598124 L51.7819706,6.89979746 Z" id="Fill-40"></path>
                    <path d="M54.5073375,6.89979746 L56.1820755,6.89979746 L56.1820755,5.19598124 L54.5073375,5.19598124 L54.5073375,6.89979746 Z" id="Fill-41"></path>
                    <path d="M2.72536688,9.37341435 L4.40010482,9.37341435 L4.40010482,7.66959812 L2.72536688,7.66959812 L2.72536688,9.37341435 Z" id="Fill-42"></path>
                    <path d="M5.45073375,9.37341435 L7.1254717,9.37341435 L7.1254717,7.66959812 L5.45073375,7.66959812 L5.45073375,9.37341435 Z" id="Fill-43"></path>
                    <path d="M8.17610063,9.37341435 L9.85083857,9.37341435 L9.85083857,7.66959812 L8.17610063,7.66959812 L8.17610063,9.37341435 Z" id="Fill-44"></path>
                    <path d="M10.9014675,9.37341435 L12.5762055,9.37341435 L12.5762055,7.66959812 L10.9014675,7.66959812 L10.9014675,9.37341435 Z" id="Fill-45"></path>
                    <path d="M13.6268344,9.37341435 L15.3015723,9.37341435 L15.3015723,7.66959812 L13.6268344,7.66959812 L13.6268344,9.37341435 Z" id="Fill-46"></path>
                    <path d="M16.3522013,9.37341435 L18.0269392,9.37341435 L18.0269392,7.66959812 L16.3522013,7.66959812 L16.3522013,9.37341435 Z" id="Fill-47"></path>
                    <path d="M19.0775681,9.3736915 L20.7523061,9.3736915 L20.7523061,7.66987528 L19.0775681,7.66987528 L19.0775681,9.3736915 Z" id="Fill-48"></path>
                    <path d="M21.802935,9.37341435 L23.477673,9.37341435 L23.477673,7.66959812 L21.802935,7.66959812 L21.802935,9.37341435 Z" id="Fill-49"></path>
                    <path d="M24.5283019,9.37341435 L26.2030398,9.37341435 L26.2030398,7.66959812 L24.5283019,7.66959812 L24.5283019,9.37341435 Z" id="Fill-50"></path>
                    <path d="M27.2536688,9.37341435 L28.9284067,9.37341435 L28.9284067,7.66959812 L27.2536688,7.66959812 L27.2536688,9.37341435 Z" id="Fill-51"></path>
                    <path d="M29.9790356,9.37341435 L31.6537736,9.37341435 L31.6537736,7.66959812 L29.9790356,7.66959812 L29.9790356,9.37341435 Z" id="Fill-52"></path>
                    <path d="M32.7044025,9.37341435 L34.3791405,9.37341435 L34.3791405,7.66959812 L32.7044025,7.66959812 L32.7044025,9.37341435 Z" id="Fill-53"></path>
                    <path d="M35.4297694,9.37341435 L37.1045073,9.37341435 L37.1045073,7.66959812 L35.4297694,7.66959812 L35.4297694,9.37341435 Z" id="Fill-54"></path>
                    <path d="M38.1551363,9.37341435 L39.8298742,9.37341435 L39.8298742,7.66959812 L38.1551363,7.66959812 L38.1551363,9.37341435 Z" id="Fill-55"></path>
                    <path d="M40.8805031,9.37341435 L42.5552411,9.37341435 L42.5552411,7.66959812 L40.8805031,7.66959812 L40.8805031,9.37341435 Z" id="Fill-56"></path>
                    <path d="M43.60587,9.37341435 L45.280608,9.37341435 L45.280608,7.66959812 L43.60587,7.66959812 L43.60587,9.37341435 Z" id="Fill-57"></path>
                    <path d="M46.3312369,9.37341435 L48.0059748,9.37341435 L48.0059748,7.66959812 L46.3312369,7.66959812 L46.3312369,9.37341435 Z" id="Fill-58"></path>
                    <path d="M49.0566038,9.37341435 L50.7313417,9.37341435 L50.7313417,7.66959812 L49.0566038,7.66959812 L49.0566038,9.37341435 Z" id="Fill-59"></path>
                    <path d="M51.7819706,9.37341435 L53.4567086,9.37341435 L53.4567086,7.66959812 L51.7819706,7.66959812 L51.7819706,9.37341435 Z" id="Fill-60"></path>
                    <path d="M54.5073375,9.37341435 L56.1820755,9.37341435 L56.1820755,7.66959812 L54.5073375,7.66959812 L54.5073375,9.37341435 Z" id="Fill-61"></path>
                    <path d="M2.72536688,11.8477241 L4.40010482,11.8477241 L4.40010482,10.1439079 L2.72536688,10.1439079 L2.72536688,11.8477241 Z" id="Fill-62"></path>
                    <path d="M5.45073375,11.8477241 L7.1254717,11.8477241 L7.1254717,10.1439079 L5.45073375,10.1439079 L5.45073375,11.8477241 Z" id="Fill-63"></path>
                    <path d="M8.17610063,11.8477241 L9.85083857,11.8477241 L9.85083857,10.1439079 L8.17610063,10.1439079 L8.17610063,11.8477241 Z" id="Fill-64"></path>
                    <path d="M10.9014675,11.8477241 L12.5762055,11.8477241 L12.5762055,10.1439079 L10.9014675,10.1439079 L10.9014675,11.8477241 Z" id="Fill-65"></path>
                    <path d="M13.6268344,11.8477241 L15.3015723,11.8477241 L15.3015723,10.1439079 L13.6268344,10.1439079 L13.6268344,11.8477241 Z" id="Fill-66"></path>
                    <path d="M16.3522013,11.8477241 L18.0269392,11.8477241 L18.0269392,10.1439079 L16.3522013,10.1439079 L16.3522013,11.8477241 Z" id="Fill-67"></path>
                    <path d="M19.0775681,11.8475163 L20.7523061,11.8475163 L20.7523061,10.1437 L19.0775681,10.1437 L19.0775681,11.8475163 Z" id="Fill-68"></path>
                    <path d="M21.802935,11.8477241 L23.477673,11.8477241 L23.477673,10.1439079 L21.802935,10.1439079 L21.802935,11.8477241 Z" id="Fill-69"></path>
                    <path d="M24.5283019,11.8477241 L26.2030398,11.8477241 L26.2030398,10.1439079 L24.5283019,10.1439079 L24.5283019,11.8477241 Z" id="Fill-70"></path>
                    <path d="M27.2536688,11.8477241 L28.9284067,11.8477241 L28.9284067,10.1439079 L27.2536688,10.1439079 L27.2536688,11.8477241 Z" id="Fill-71"></path>
                    <path d="M29.9790356,11.8477241 L31.6537736,11.8477241 L31.6537736,10.1439079 L29.9790356,10.1439079 L29.9790356,11.8477241 Z" id="Fill-72"></path>
                    <path d="M32.7044025,11.8477241 L34.3791405,11.8477241 L34.3791405,10.1439079 L32.7044025,10.1439079 L32.7044025,11.8477241 Z" id="Fill-73"></path>
                    <path d="M35.4297694,11.8477241 L37.1045073,11.8477241 L37.1045073,10.1439079 L35.4297694,10.1439079 L35.4297694,11.8477241 Z" id="Fill-74"></path>
                    <path d="M38.1551363,11.8477241 L39.8298742,11.8477241 L39.8298742,10.1439079 L38.1551363,10.1439079 L38.1551363,11.8477241 Z" id="Fill-75"></path>
                    <path d="M40.8805031,11.8477241 L42.5552411,11.8477241 L42.5552411,10.1439079 L40.8805031,10.1439079 L40.8805031,11.8477241 Z" id="Fill-76"></path>
                    <path d="M43.60587,11.8477241 L45.280608,11.8477241 L45.280608,10.1439079 L43.60587,10.1439079 L43.60587,11.8477241 Z" id="Fill-77"></path>
                    <path d="M46.3312369,11.8477241 L48.0059748,11.8477241 L48.0059748,10.1439079 L46.3312369,10.1439079 L46.3312369,11.8477241 Z" id="Fill-78"></path>
                    <path d="M49.0566038,11.8477241 L50.7313417,11.8477241 L50.7313417,10.1439079 L49.0566038,10.1439079 L49.0566038,11.8477241 Z" id="Fill-79"></path>
                    <path d="M51.7819706,11.8477241 L53.4567086,11.8477241 L53.4567086,10.1439079 L51.7819706,10.1439079 L51.7819706,11.8477241 Z" id="Fill-80"></path>
                    <path d="M2.72536688,14.321341 L4.40010482,14.321341 L4.40010482,12.6175248 L2.72536688,12.6175248 L2.72536688,14.321341 Z" id="Fill-81"></path>
                    <path d="M5.45073375,14.321341 L7.1254717,14.321341 L7.1254717,12.6175248 L5.45073375,12.6175248 L5.45073375,14.321341 Z" id="Fill-82"></path>
                    <path d="M8.17610063,14.321341 L9.85083857,14.321341 L9.85083857,12.6175248 L8.17610063,12.6175248 L8.17610063,14.321341 Z" id="Fill-83"></path>
                    <path d="M10.9014675,14.321341 L12.5762055,14.321341 L12.5762055,12.6175248 L10.9014675,12.6175248 L10.9014675,14.321341 Z" id="Fill-84"></path>
                    <path d="M13.6268344,14.321341 L15.3015723,14.321341 L15.3015723,12.6175248 L13.6268344,12.6175248 L13.6268344,14.321341 Z" id="Fill-85"></path>
                    <path d="M16.3522013,14.321341 L18.0269392,14.321341 L18.0269392,12.6175248 L16.3522013,12.6175248 L16.3522013,14.321341 Z" id="Fill-86"></path>
                    <path d="M19.0775681,14.321341 L20.7523061,14.321341 L20.7523061,12.6175248 L19.0775681,12.6175248 L19.0775681,14.321341 Z" id="Fill-87"></path>
                    <path d="M21.802935,14.321341 L23.477673,14.321341 L23.477673,12.6175248 L21.802935,12.6175248 L21.802935,14.321341 Z" id="Fill-88"></path>
                    <path d="M24.5283019,14.321341 L26.2030398,14.321341 L26.2030398,12.6175248 L24.5283019,12.6175248 L24.5283019,14.321341 Z" id="Fill-89"></path>
                    <path d="M27.2536688,14.321341 L28.9284067,14.321341 L28.9284067,12.6175248 L27.2536688,12.6175248 L27.2536688,14.321341 Z" id="Fill-90"></path>
                    <path d="M29.9790356,14.321341 L31.6537736,14.321341 L31.6537736,12.6175248 L29.9790356,12.6175248 L29.9790356,14.321341 Z" id="Fill-91"></path>
                    <path d="M32.7044025,14.321341 L34.3791405,14.321341 L34.3791405,12.6175248 L32.7044025,12.6175248 L32.7044025,14.321341 Z" id="Fill-92"></path>
                    <path d="M35.4297694,14.321341 L37.1045073,14.321341 L37.1045073,12.6175248 L35.4297694,12.6175248 L35.4297694,14.321341 Z" id="Fill-93"></path>
                    <path d="M38.1551363,14.321341 L39.8298742,14.321341 L39.8298742,12.6175248 L38.1551363,12.6175248 L38.1551363,14.321341 Z" id="Fill-94"></path>
                    <path d="M40.8805031,14.321341 L42.5552411,14.321341 L42.5552411,12.6175248 L40.8805031,12.6175248 L40.8805031,14.321341 Z" id="Fill-95"></path>
                    <path d="M43.60587,14.321341 L45.280608,14.321341 L45.280608,12.6175248 L43.60587,12.6175248 L43.60587,14.321341 Z" id="Fill-96"></path>
                    <path d="M46.3312369,14.321341 L48.0059748,14.321341 L48.0059748,12.6175248 L46.3312369,12.6175248 L46.3312369,14.321341 Z" id="Fill-97"></path>
                    <path d="M49.0566038,14.321341 L50.7313417,14.321341 L50.7313417,12.6175248 L49.0566038,12.6175248 L49.0566038,14.321341 Z" id="Fill-98"></path>
                    <path d="M2.72536688,16.7949579 L4.40010482,16.7949579 L4.40010482,15.0911417 L2.72536688,15.0911417 L2.72536688,16.7949579 Z" id="Fill-99"></path>
                    <path d="M5.45073375,16.7949579 L7.1254717,16.7949579 L7.1254717,15.0911417 L5.45073375,15.0911417 L5.45073375,16.7949579 Z" id="Fill-100"></path>
                    <path d="M8.17610063,16.7949579 L9.85083857,16.7949579 L9.85083857,15.0911417 L8.17610063,15.0911417 L8.17610063,16.7949579 Z" id="Fill-101"></path>
                    <path d="M10.9014675,16.7949579 L12.5762055,16.7949579 L12.5762055,15.0911417 L10.9014675,15.0911417 L10.9014675,16.7949579 Z" id="Fill-102"></path>
                    <path d="M13.6268344,16.7949579 L15.3015723,16.7949579 L15.3015723,15.0911417 L13.6268344,15.0911417 L13.6268344,16.7949579 Z" id="Fill-103"></path>
                    <path d="M16.3522013,16.7949579 L18.0269392,16.7949579 L18.0269392,15.0911417 L16.3522013,15.0911417 L16.3522013,16.7949579 Z" id="Fill-104"></path>
                    <path d="M19.0775681,16.7951658 L20.7523061,16.7951658 L20.7523061,15.0913495 L19.0775681,15.0913495 L19.0775681,16.7951658 Z" id="Fill-105"></path>
                    <path d="M21.802935,16.7949579 L23.477673,16.7949579 L23.477673,15.0911417 L21.802935,15.0911417 L21.802935,16.7949579 Z" id="Fill-106"></path>
                    <path d="M24.5283019,16.7949579 L26.2030398,16.7949579 L26.2030398,15.0911417 L24.5283019,15.0911417 L24.5283019,16.7949579 Z" id="Fill-107"></path>
                    <path d="M27.2536688,16.7949579 L28.9284067,16.7949579 L28.9284067,15.0911417 L27.2536688,15.0911417 L27.2536688,16.7949579 Z" id="Fill-108"></path>
                    <path d="M29.9790356,16.7949579 L31.6537736,16.7949579 L31.6537736,15.0911417 L29.9790356,15.0911417 L29.9790356,16.7949579 Z" id="Fill-109"></path>
                    <path d="M32.7044025,16.7949579 L34.3791405,16.7949579 L34.3791405,15.0911417 L32.7044025,15.0911417 L32.7044025,16.7949579 Z" id="Fill-110"></path>
                    <path d="M35.4297694,16.7949579 L37.1045073,16.7949579 L37.1045073,15.0911417 L35.4297694,15.0911417 L35.4297694,16.7949579 Z" id="Fill-111"></path>
                    <path d="M38.1551363,16.7949579 L39.8298742,16.7949579 L39.8298742,15.0911417 L38.1551363,15.0911417 L38.1551363,16.7949579 Z" id="Fill-112"></path>
                    <path d="M40.8805031,16.7949579 L42.5552411,16.7949579 L42.5552411,15.0911417 L40.8805031,15.0911417 L40.8805031,16.7949579 Z" id="Fill-113"></path>
                    <path d="M43.60587,16.7949579 L45.280608,16.7949579 L45.280608,15.0911417 L43.60587,15.0911417 L43.60587,16.7949579 Z" id="Fill-114"></path>
                    <path d="M46.3312369,16.7949579 L48.0059748,16.7949579 L48.0059748,15.0911417 L46.3312369,15.0911417 L46.3312369,16.7949579 Z" id="Fill-115"></path>
                    <path d="M49.0566038,16.7949579 L50.7313417,16.7949579 L50.7313417,15.0911417 L49.0566038,15.0911417 L49.0566038,16.7949579 Z" id="Fill-116"></path>
                    <path d="M2.72536688,19.2692677 L4.40010482,19.2692677 L4.40010482,17.5654514 L2.72536688,17.5654514 L2.72536688,19.2692677 Z" id="Fill-117"></path>
                    <path d="M5.45073375,19.2692677 L7.1254717,19.2692677 L7.1254717,17.5654514 L5.45073375,17.5654514 L5.45073375,19.2692677 Z" id="Fill-118"></path>
                    <path d="M8.17610063,19.2692677 L9.85083857,19.2692677 L9.85083857,17.5654514 L8.17610063,17.5654514 L8.17610063,19.2692677 Z" id="Fill-119"></path>
                    <path d="M10.9014675,19.2692677 L12.5762055,19.2692677 L12.5762055,17.5654514 L10.9014675,17.5654514 L10.9014675,19.2692677 Z" id="Fill-120"></path>
                    <path d="M13.6268344,19.2692677 L15.3015723,19.2692677 L15.3015723,17.5654514 L13.6268344,17.5654514 L13.6268344,19.2692677 Z" id="Fill-121"></path>
                    <path d="M16.3522013,19.2692677 L18.0269392,19.2692677 L18.0269392,17.5654514 L16.3522013,17.5654514 L16.3522013,19.2692677 Z" id="Fill-122"></path>
                    <path d="M19.0775681,19.2689905 L20.7523061,19.2689905 L20.7523061,17.5651743 L19.0775681,17.5651743 L19.0775681,19.2689905 Z" id="Fill-123"></path>
                    <path d="M21.802935,19.2692677 L23.477673,19.2692677 L23.477673,17.5654514 L21.802935,17.5654514 L21.802935,19.2692677 Z" id="Fill-124"></path>
                    <path d="M24.5283019,19.2692677 L26.2030398,19.2692677 L26.2030398,17.5654514 L24.5283019,17.5654514 L24.5283019,19.2692677 Z" id="Fill-125"></path>
                    <path d="M27.2536688,19.2692677 L28.9284067,19.2692677 L28.9284067,17.5654514 L27.2536688,17.5654514 L27.2536688,19.2692677 Z" id="Fill-126"></path>
                    <path d="M29.9790356,19.2692677 L31.6537736,19.2692677 L31.6537736,17.5654514 L29.9790356,17.5654514 L29.9790356,19.2692677 Z" id="Fill-127"></path>
                    <path d="M32.7044025,19.2692677 L34.3791405,19.2692677 L34.3791405,17.5654514 L32.7044025,17.5654514 L32.7044025,19.2692677 Z" id="Fill-128"></path>
                    <path d="M35.4297694,19.2692677 L37.1045073,19.2692677 L37.1045073,17.5654514 L35.4297694,17.5654514 L35.4297694,19.2692677 Z" id="Fill-129"></path>
                    <path d="M38.1551363,19.2692677 L39.8298742,19.2692677 L39.8298742,17.5654514 L38.1551363,17.5654514 L38.1551363,19.2692677 Z" id="Fill-130"></path>
                    <path d="M40.8805031,19.2692677 L42.5552411,19.2692677 L42.5552411,17.5654514 L40.8805031,17.5654514 L40.8805031,19.2692677 Z" id="Fill-131"></path>
                    <path d="M43.60587,19.2692677 L45.280608,19.2692677 L45.280608,17.5654514 L43.60587,17.5654514 L43.60587,19.2692677 Z" id="Fill-132"></path>
                    <path d="M46.3312369,19.2692677 L48.0059748,19.2692677 L48.0059748,17.5654514 L46.3312369,17.5654514 L46.3312369,19.2692677 Z" id="Fill-133"></path>
                    <path d="M49.0566038,19.2692677 L50.7313417,19.2692677 L50.7313417,17.5654514 L49.0566038,17.5654514 L49.0566038,19.2692677 Z" id="Fill-134"></path>
                    <path d="M51.7819706,19.2692677 L53.4567086,19.2692677 L53.4567086,17.5654514 L51.7819706,17.5654514 L51.7819706,19.2692677 Z" id="Fill-135"></path>
                    <path d="M2.72536688,21.7428846 L4.40010482,21.7428846 L4.40010482,20.0390683 L2.72536688,20.0390683 L2.72536688,21.7428846 Z" id="Fill-136"></path>
                    <path d="M5.45073375,21.7428846 L7.1254717,21.7428846 L7.1254717,20.0390683 L5.45073375,20.0390683 L5.45073375,21.7428846 Z" id="Fill-137"></path>
                    <path d="M8.17610063,21.7428846 L9.85083857,21.7428846 L9.85083857,20.0390683 L8.17610063,20.0390683 L8.17610063,21.7428846 Z" id="Fill-138"></path>
                    <path d="M10.9014675,21.7428846 L12.5762055,21.7428846 L12.5762055,20.0390683 L10.9014675,20.0390683 L10.9014675,21.7428846 Z" id="Fill-139"></path>
                    <path d="M13.6268344,21.7428846 L15.3015723,21.7428846 L15.3015723,20.0390683 L13.6268344,20.0390683 L13.6268344,21.7428846 Z" id="Fill-140"></path>
                    <path d="M16.3522013,21.7428846 L18.0269392,21.7428846 L18.0269392,20.0390683 L16.3522013,20.0390683 L16.3522013,21.7428846 Z" id="Fill-141"></path>
                    <path d="M19.0775681,21.7428153 L20.7523061,21.7428153 L20.7523061,20.038999 L19.0775681,20.038999 L19.0775681,21.7428153 Z" id="Fill-142"></path>
                    <path d="M21.802935,21.7428846 L23.477673,21.7428846 L23.477673,20.0390683 L21.802935,20.0390683 L21.802935,21.7428846 Z" id="Fill-143"></path>
                    <path d="M24.5283019,21.7428846 L26.2030398,21.7428846 L26.2030398,20.0390683 L24.5283019,20.0390683 L24.5283019,21.7428846 Z" id="Fill-144"></path>
                    <path d="M27.2536688,21.7428846 L28.9284067,21.7428846 L28.9284067,20.0390683 L27.2536688,20.0390683 L27.2536688,21.7428846 Z" id="Fill-145"></path>
                    <path d="M29.9790356,21.7428846 L31.6537736,21.7428846 L31.6537736,20.0390683 L29.9790356,20.0390683 L29.9790356,21.7428846 Z" id="Fill-146"></path>
                    <path d="M32.7044025,21.7428846 L34.3791405,21.7428846 L34.3791405,20.0390683 L32.7044025,20.0390683 L32.7044025,21.7428846 Z" id="Fill-147"></path>
                    <path d="M35.4297694,21.7428846 L37.1045073,21.7428846 L37.1045073,20.0390683 L35.4297694,20.0390683 L35.4297694,21.7428846 Z" id="Fill-148"></path>
                    <path d="M38.1551363,21.7428846 L39.8298742,21.7428846 L39.8298742,20.0390683 L38.1551363,20.0390683 L38.1551363,21.7428846 Z" id="Fill-149"></path>
                    <path d="M40.8805031,21.7428846 L42.5552411,21.7428846 L42.5552411,20.0390683 L40.8805031,20.0390683 L40.8805031,21.7428846 Z" id="Fill-150"></path>
                    <path d="M43.60587,21.7428846 L45.280608,21.7428846 L45.280608,20.0390683 L43.60587,20.0390683 L43.60587,21.7428846 Z" id="Fill-151"></path>
                    <path d="M46.3312369,21.7428846 L48.0059748,21.7428846 L48.0059748,20.0390683 L46.3312369,20.0390683 L46.3312369,21.7428846 Z" id="Fill-152"></path>
                    <path d="M49.0566038,21.7428846 L50.7313417,21.7428846 L50.7313417,20.0390683 L49.0566038,20.0390683 L49.0566038,21.7428846 Z" id="Fill-153"></path>
                    <path d="M51.7819706,21.7428846 L53.4567086,21.7428846 L53.4567086,20.0390683 L51.7819706,20.0390683 L51.7819706,21.7428846 Z" id="Fill-154"></path>
                    <path d="M2.72536688,24.2165014 L4.40010482,24.2165014 L4.40010482,22.5126852 L2.72536688,22.5126852 L2.72536688,24.2165014 Z" id="Fill-155"></path>
                    <path d="M5.45073375,24.2165014 L7.1254717,24.2165014 L7.1254717,22.5126852 L5.45073375,22.5126852 L5.45073375,24.2165014 Z" id="Fill-156"></path>
                    <path d="M8.17610063,24.2165014 L9.85083857,24.2165014 L9.85083857,22.5126852 L8.17610063,22.5126852 L8.17610063,24.2165014 Z" id="Fill-157"></path>
                    <path d="M10.9014675,24.2165014 L12.5762055,24.2165014 L12.5762055,22.5126852 L10.9014675,22.5126852 L10.9014675,24.2165014 Z" id="Fill-158"></path>
                    <path d="M13.6268344,24.2165014 L15.3015723,24.2165014 L15.3015723,22.5126852 L13.6268344,22.5126852 L13.6268344,24.2165014 Z" id="Fill-159"></path>
                    <path d="M16.3522013,24.2165014 L18.0269392,24.2165014 L18.0269392,22.5126852 L16.3522013,22.5126852 L16.3522013,24.2165014 Z" id="Fill-160"></path>
                    <path d="M19.0775681,24.21664 L20.7523061,24.21664 L20.7523061,22.5128238 L19.0775681,22.5128238 L19.0775681,24.21664 Z" id="Fill-161"></path>
                    <path d="M21.802935,24.2165014 L23.477673,24.2165014 L23.477673,22.5126852 L21.802935,22.5126852 L21.802935,24.2165014 Z" id="Fill-162"></path>
                    <path d="M24.5283019,24.2165014 L26.2030398,24.2165014 L26.2030398,22.5126852 L24.5283019,22.5126852 L24.5283019,24.2165014 Z" id="Fill-163"></path>
                    <path d="M27.2536688,24.2165014 L28.9284067,24.2165014 L28.9284067,22.5126852 L27.2536688,22.5126852 L27.2536688,24.2165014 Z" id="Fill-164"></path>
                    <path d="M29.9790356,24.2165014 L31.6537736,24.2165014 L31.6537736,22.5126852 L29.9790356,22.5126852 L29.9790356,24.2165014 Z" id="Fill-165"></path>
                    <path d="M32.7044025,24.2165014 L34.3791405,24.2165014 L34.3791405,22.5126852 L32.7044025,22.5126852 L32.7044025,24.2165014 Z" id="Fill-166"></path>
                    <path d="M35.4297694,24.2165014 L37.1045073,24.2165014 L37.1045073,22.5126852 L35.4297694,22.5126852 L35.4297694,24.2165014 Z" id="Fill-167"></path>
                    <path d="M38.1551363,24.2165014 L39.8298742,24.2165014 L39.8298742,22.5126852 L38.1551363,22.5126852 L38.1551363,24.2165014 Z" id="Fill-168"></path>
                    <path d="M40.8805031,24.2165014 L42.5552411,24.2165014 L42.5552411,22.5126852 L40.8805031,22.5126852 L40.8805031,24.2165014 Z" id="Fill-169"></path>
                    <path d="M43.60587,24.2165014 L45.280608,24.2165014 L45.280608,22.5126852 L43.60587,22.5126852 L43.60587,24.2165014 Z" id="Fill-170"></path>
                    <path d="M46.3312369,24.2165014 L48.0059748,24.2165014 L48.0059748,22.5126852 L46.3312369,22.5126852 L46.3312369,24.2165014 Z" id="Fill-171"></path>
                    <path d="M49.0566038,24.2165014 L50.7313417,24.2165014 L50.7313417,22.5126852 L49.0566038,22.5126852 L49.0566038,24.2165014 Z" id="Fill-172"></path>
                    <path d="M51.7819706,24.2165014 L53.4567086,24.2165014 L53.4567086,22.5126852 L51.7819706,22.5126852 L51.7819706,24.2165014 Z" id="Fill-173"></path>
                    <path d="M2.72536688,26.6901183 L4.40010482,26.6901183 L4.40010482,24.9863021 L2.72536688,24.9863021 L2.72536688,26.6901183 Z" id="Fill-174"></path>
                    <path d="M5.45073375,26.6901183 L7.1254717,26.6901183 L7.1254717,24.9863021 L5.45073375,24.9863021 L5.45073375,26.6901183 Z" id="Fill-175"></path>
                    <path d="M8.17610063,26.6901183 L9.85083857,26.6901183 L9.85083857,24.9863021 L8.17610063,24.9863021 L8.17610063,26.6901183 Z" id="Fill-176"></path>
                    <path d="M10.9014675,26.6901183 L12.5762055,26.6901183 L12.5762055,24.9863021 L10.9014675,24.9863021 L10.9014675,26.6901183 Z" id="Fill-177"></path>
                    <path d="M13.6268344,26.6901183 L15.3015723,26.6901183 L15.3015723,24.9863021 L13.6268344,24.9863021 L13.6268344,26.6901183 Z" id="Fill-178"></path>
                    <path d="M16.3522013,26.6901183 L18.0269392,26.6901183 L18.0269392,24.9863021 L16.3522013,24.9863021 L16.3522013,26.6901183 Z" id="Fill-179"></path>
                    <path d="M19.0775681,26.6904648 L20.7523061,26.6904648 L20.7523061,24.9866485 L19.0775681,24.9866485 L19.0775681,26.6904648 Z" id="Fill-180"></path>
                    <path d="M21.802935,26.6901183 L23.477673,26.6901183 L23.477673,24.9863021 L21.802935,24.9863021 L21.802935,26.6901183 Z" id="Fill-181"></path>
                    <path d="M24.5283019,26.6901183 L26.2030398,26.6901183 L26.2030398,24.9863021 L24.5283019,24.9863021 L24.5283019,26.6901183 Z" id="Fill-182"></path>
                    <path d="M27.2536688,26.6901183 L28.9284067,26.6901183 L28.9284067,24.9863021 L27.2536688,24.9863021 L27.2536688,26.6901183 Z" id="Fill-183"></path>
                    <path d="M29.9790356,26.6901183 L31.6537736,26.6901183 L31.6537736,24.9863021 L29.9790356,24.9863021 L29.9790356,26.6901183 Z" id="Fill-184"></path>
                    <path d="M32.7044025,26.6901183 L34.3791405,26.6901183 L34.3791405,24.9863021 L32.7044025,24.9863021 L32.7044025,26.6901183 Z" id="Fill-185"></path>
                    <path d="M35.4297694,26.6901183 L37.1045073,26.6901183 L37.1045073,24.9863021 L35.4297694,24.9863021 L35.4297694,26.6901183 Z" id="Fill-186"></path>
                    <path d="M38.1551363,26.6901183 L39.8298742,26.6901183 L39.8298742,24.9863021 L38.1551363,24.9863021 L38.1551363,26.6901183 Z" id="Fill-187"></path>
                    <path d="M40.8805031,26.6901183 L42.5552411,26.6901183 L42.5552411,24.9863021 L40.8805031,24.9863021 L40.8805031,26.6901183 Z" id="Fill-188"></path>
                    <path d="M43.60587,26.6901183 L45.280608,26.6901183 L45.280608,24.9863021 L43.60587,24.9863021 L43.60587,26.6901183 Z" id="Fill-189"></path>
                    <path d="M46.3312369,26.6901183 L48.0059748,26.6901183 L48.0059748,24.9863021 L46.3312369,24.9863021 L46.3312369,26.6901183 Z" id="Fill-190"></path>
                    <path d="M49.0566038,26.6901183 L50.7313417,26.6901183 L50.7313417,24.9863021 L49.0566038,24.9863021 L49.0566038,26.6901183 Z" id="Fill-191"></path>
                    <path d="M51.7819706,26.6901183 L53.4567086,26.6901183 L53.4567086,24.9863021 L51.7819706,24.9863021 L51.7819706,26.6901183 Z" id="Fill-192"></path>
                    <path d="M0,29.1644281 L1.67541929,29.1644281 L1.67541929,27.4606119 L0,27.4606119 L0,29.1644281 Z" id="Fill-193"></path>
                    <path d="M2.72536688,29.1644281 L4.40010482,29.1644281 L4.40010482,27.4606119 L2.72536688,27.4606119 L2.72536688,29.1644281 Z" id="Fill-194"></path>
                    <path d="M5.45073375,29.1642895 L7.1254717,29.1642895 L7.1254717,27.4604733 L5.45073375,27.4604733 L5.45073375,29.1642895 Z" id="Fill-195"></path>
                    <path d="M8.17610063,29.1644281 L9.85083857,29.1644281 L9.85083857,27.4606119 L8.17610063,27.4606119 L8.17610063,29.1644281 Z" id="Fill-196"></path>
                    <path d="M10.9014675,29.1644281 L12.5762055,29.1644281 L12.5762055,27.4606119 L10.9014675,27.4606119 L10.9014675,29.1644281 Z" id="Fill-197"></path>
                    <path d="M13.6268344,29.1644281 L15.3015723,29.1644281 L15.3015723,27.4606119 L13.6268344,27.4606119 L13.6268344,29.1644281 Z" id="Fill-198"></path>
                    <path d="M16.3522013,29.1644281 L18.0269392,29.1644281 L18.0269392,27.4606119 L16.3522013,27.4606119 L16.3522013,29.1644281 Z" id="Fill-199"></path>
                    <path d="M19.0775681,29.1642895 L20.7523061,29.1642895 L20.7523061,27.4604733 L19.0775681,27.4604733 L19.0775681,29.1642895 Z" id="Fill-200"></path>
                    <path d="M21.802935,29.1644281 L23.477673,29.1644281 L23.477673,27.4606119 L21.802935,27.4606119 L21.802935,29.1644281 Z" id="Fill-201"></path>
                    <path d="M24.5283019,29.1644281 L26.2030398,29.1644281 L26.2030398,27.4606119 L24.5283019,27.4606119 L24.5283019,29.1644281 Z" id="Fill-202"></path>
                    <path d="M27.2536688,29.1644281 L28.9284067,29.1644281 L28.9284067,27.4606119 L27.2536688,27.4606119 L27.2536688,29.1644281 Z" id="Fill-203"></path>
                    <path d="M29.9790356,29.1644281 L31.6537736,29.1644281 L31.6537736,27.4606119 L29.9790356,27.4606119 L29.9790356,29.1644281 Z" id="Fill-204"></path>
                    <path d="M32.7044025,29.1644281 L34.3791405,29.1644281 L34.3791405,27.4606119 L32.7044025,27.4606119 L32.7044025,29.1644281 Z" id="Fill-205"></path>
                    <path d="M35.4297694,29.1642895 L37.1045073,29.1642895 L37.1045073,27.4604733 L35.4297694,27.4604733 L35.4297694,29.1642895 Z" id="Fill-206"></path>
                    <path d="M38.1551363,29.1644281 L39.8298742,29.1644281 L39.8298742,27.4606119 L38.1551363,27.4606119 L38.1551363,29.1644281 Z" id="Fill-207"></path>
                    <path d="M40.8805031,29.1644281 L42.5552411,29.1644281 L42.5552411,27.4606119 L40.8805031,27.4606119 L40.8805031,29.1644281 Z" id="Fill-208"></path>
                    <path d="M43.60587,29.1644281 L45.280608,29.1644281 L45.280608,27.4606119 L43.60587,27.4606119 L43.60587,29.1644281 Z" id="Fill-209"></path>
                    <path d="M46.3312369,29.1644281 L48.0059748,29.1644281 L48.0059748,27.4606119 L46.3312369,27.4606119 L46.3312369,29.1644281 Z" id="Fill-210"></path>
                    <path d="M49.0566038,29.1644281 L50.7313417,29.1644281 L50.7313417,27.4606119 L49.0566038,27.4606119 L49.0566038,29.1644281 Z" id="Fill-211"></path>
                    <path d="M51.7819706,29.1644281 L53.4567086,29.1644281 L53.4567086,27.4606119 L51.7819706,27.4606119 L51.7819706,29.1644281 Z" id="Fill-212"></path>
                    <path d="M0,31.638045 L1.67541929,31.638045 L1.67541929,29.9342288 L0,29.9342288 L0,31.638045 Z" id="Fill-213"></path>
                    <path d="M2.72536688,31.638045 L4.40010482,31.638045 L4.40010482,29.9342288 L2.72536688,29.9342288 L2.72536688,31.638045 Z" id="Fill-214"></path>
                    <path d="M5.45073375,31.6381143 L7.1254717,31.6381143 L7.1254717,29.934298 L5.45073375,29.934298 L5.45073375,31.6381143 Z" id="Fill-215"></path>
                    <path d="M8.17610063,31.638045 L9.85083857,31.638045 L9.85083857,29.9342288 L8.17610063,29.9342288 L8.17610063,31.638045 Z" id="Fill-216"></path>
                    <path d="M10.9014675,31.638045 L12.5762055,31.638045 L12.5762055,29.9342288 L10.9014675,29.9342288 L10.9014675,31.638045 Z" id="Fill-217"></path>
                    <path d="M13.6268344,31.638045 L15.3015723,31.638045 L15.3015723,29.9342288 L13.6268344,29.9342288 L13.6268344,31.638045 Z" id="Fill-218"></path>
                    <path d="M16.3522013,31.638045 L18.0269392,31.638045 L18.0269392,29.9342288 L16.3522013,29.9342288 L16.3522013,31.638045 Z" id="Fill-219"></path>
                    <path d="M19.0775681,31.638045 L20.7523061,31.638045 L20.7523061,29.9342288 L19.0775681,29.9342288 L19.0775681,31.638045 Z" id="Fill-220"></path>
                    <path d="M21.802935,31.638045 L23.477673,31.638045 L23.477673,29.9342288 L21.802935,29.9342288 L21.802935,31.638045 Z" id="Fill-221"></path>
                    <path d="M24.5283019,31.638045 L26.2030398,31.638045 L26.2030398,29.9342288 L24.5283019,29.9342288 L24.5283019,31.638045 Z" id="Fill-222"></path>
                    <path d="M27.2536688,31.638045 L28.9284067,31.638045 L28.9284067,29.9342288 L27.2536688,29.9342288 L27.2536688,31.638045 Z" id="Fill-223"></path>
                    <path d="M29.9790356,31.638045 L31.6537736,31.638045 L31.6537736,29.9342288 L29.9790356,29.9342288 L29.9790356,31.638045 Z" id="Fill-224"></path>
                    <path d="M32.7044025,31.638045 L34.3791405,31.638045 L34.3791405,29.9342288 L32.7044025,29.9342288 L32.7044025,31.638045 Z" id="Fill-225"></path>
                    <path d="M35.4297694,31.6381143 L37.1045073,31.6381143 L37.1045073,29.934298 L35.4297694,29.934298 L35.4297694,31.6381143 Z" id="Fill-226"></path>
                    <path d="M38.1551363,31.638045 L39.8298742,31.638045 L39.8298742,29.9342288 L38.1551363,29.9342288 L38.1551363,31.638045 Z" id="Fill-227"></path>
                    <path d="M40.8805031,31.638045 L42.5552411,31.638045 L42.5552411,29.9342288 L40.8805031,29.9342288 L40.8805031,31.638045 Z" id="Fill-228"></path>
                    <path d="M43.60587,31.638045 L45.280608,31.638045 L45.280608,29.9342288 L43.60587,29.9342288 L43.60587,31.638045 Z" id="Fill-229"></path>
                    <path d="M46.3312369,31.638045 L48.0059748,31.638045 L48.0059748,29.9342288 L46.3312369,29.9342288 L46.3312369,31.638045 Z" id="Fill-230"></path>
                    <path d="M49.0566038,31.638045 L50.7313417,31.638045 L50.7313417,29.9342288 L49.0566038,29.9342288 L49.0566038,31.638045 Z" id="Fill-231"></path>
                    <path d="M51.7819706,31.638045 L53.4567086,31.638045 L53.4567086,29.9342288 L51.7819706,29.9342288 L51.7819706,31.638045 Z" id="Fill-232"></path>
                    <path d="M0,34.1123548 L1.67541929,34.1123548 L1.67541929,32.4085385 L0,32.4085385 L0,34.1123548 Z" id="Fill-233"></path>
                    <path d="M2.72536688,34.1116619 L4.40010482,34.1116619 L4.40010482,32.4078456 L2.72536688,32.4078456 L2.72536688,34.1116619 Z" id="Fill-234"></path>
                    <path d="M5.45073375,34.111939 L7.1254717,34.111939 L7.1254717,32.4081228 L5.45073375,32.4081228 L5.45073375,34.111939 Z" id="Fill-235"></path>
                    <path d="M8.17610063,34.1116619 L9.85083857,34.1116619 L9.85083857,32.4078456 L8.17610063,32.4078456 L8.17610063,34.1116619 Z" id="Fill-236"></path>
                    <path d="M10.9014675,34.1116619 L12.5762055,34.1116619 L12.5762055,32.4078456 L10.9014675,32.4078456 L10.9014675,34.1116619 Z" id="Fill-237"></path>
                    <path d="M13.6268344,34.1116619 L15.3015723,34.1116619 L15.3015723,32.4078456 L13.6268344,32.4078456 L13.6268344,34.1116619 Z" id="Fill-238"></path>
                    <path d="M16.3522013,34.1116619 L18.0269392,34.1116619 L18.0269392,32.4078456 L16.3522013,32.4078456 L16.3522013,34.1116619 Z" id="Fill-239"></path>
                    <path d="M19.0775681,34.1116619 L20.7523061,34.1116619 L20.7523061,32.4078456 L19.0775681,32.4078456 L19.0775681,34.1116619 Z" id="Fill-240"></path>
                    <path d="M21.802935,34.1116619 L23.477673,34.1116619 L23.477673,32.4078456 L21.802935,32.4078456 L21.802935,34.1116619 Z" id="Fill-241"></path>
                    <path d="M24.5283019,34.1116619 L26.2030398,34.1116619 L26.2030398,32.4078456 L24.5283019,32.4078456 L24.5283019,34.1116619 Z" id="Fill-242"></path>
                    <path d="M27.2536688,34.1116619 L28.9284067,34.1116619 L28.9284067,32.4078456 L27.2536688,32.4078456 L27.2536688,34.1116619 Z" id="Fill-243"></path>
                    <path d="M29.9790356,34.1116619 L31.6537736,34.1116619 L31.6537736,32.4078456 L29.9790356,32.4078456 L29.9790356,34.1116619 Z" id="Fill-244"></path>
                    <path d="M32.7044025,34.1116619 L34.3791405,34.1116619 L34.3791405,32.4078456 L32.7044025,32.4078456 L32.7044025,34.1116619 Z" id="Fill-245"></path>
                    <path d="M35.4297694,34.111939 L37.1045073,34.111939 L37.1045073,32.4081228 L35.4297694,32.4081228 L35.4297694,34.111939 Z" id="Fill-246"></path>
                    <path d="M38.1551363,34.1116619 L39.8298742,34.1116619 L39.8298742,32.4078456 L38.1551363,32.4078456 L38.1551363,34.1116619 Z" id="Fill-247"></path>
                    <path d="M40.8805031,34.1116619 L42.5552411,34.1116619 L42.5552411,32.4078456 L40.8805031,32.4078456 L40.8805031,34.1116619 Z" id="Fill-248"></path>
                    <path d="M43.60587,34.1116619 L45.280608,34.1116619 L45.280608,32.4078456 L43.60587,32.4078456 L43.60587,34.1116619 Z" id="Fill-249"></path>
                    <path d="M46.3312369,34.1116619 L48.0059748,34.1116619 L48.0059748,32.4078456 L46.3312369,32.4078456 L46.3312369,34.1116619 Z" id="Fill-250"></path>
                    <path d="M49.0566038,34.1116619 L50.7313417,34.1116619 L50.7313417,32.4078456 L49.0566038,32.4078456 L49.0566038,34.1116619 Z" id="Fill-251"></path>
                    <path d="M51.7819706,34.1116619 L53.4567086,34.1116619 L53.4567086,32.4078456 L51.7819706,32.4078456 L51.7819706,34.1116619 Z" id="Fill-252"></path>
                    <path d="M54.5073375,34.1116619 L56.1820755,34.1116619 L56.1820755,32.4078456 L54.5073375,32.4078456 L54.5073375,34.1116619 Z" id="Fill-253"></path>
                    <path d="M0,36.5859716 L1.67541929,36.5859716 L1.67541929,34.8821554 L0,34.8821554 L0,36.5859716 Z" id="Fill-254"></path>
                    <path d="M2.72536688,36.5859716 L4.40010482,36.5859716 L4.40010482,34.8821554 L2.72536688,34.8821554 L2.72536688,36.5859716 Z" id="Fill-255"></path>
                    <path d="M5.45073375,36.5857638 L7.1254717,36.5857638 L7.1254717,34.8819476 L5.45073375,34.8819476 L5.45073375,36.5857638 Z" id="Fill-256"></path>
                    <path d="M8.17610063,36.5859716 L9.85083857,36.5859716 L9.85083857,34.8821554 L8.17610063,34.8821554 L8.17610063,36.5859716 Z" id="Fill-257"></path>
                    <path d="M10.9014675,36.5859716 L12.5762055,36.5859716 L12.5762055,34.8821554 L10.9014675,34.8821554 L10.9014675,36.5859716 Z" id="Fill-258"></path>
                    <path d="M13.6268344,36.5859716 L15.3015723,36.5859716 L15.3015723,34.8821554 L13.6268344,34.8821554 L13.6268344,36.5859716 Z" id="Fill-259"></path>
                    <path d="M16.3522013,36.5859716 L18.0269392,36.5859716 L18.0269392,34.8821554 L16.3522013,34.8821554 L16.3522013,36.5859716 Z" id="Fill-260"></path>
                    <path d="M19.0775681,36.5859716 L20.7523061,36.5859716 L20.7523061,34.8821554 L19.0775681,34.8821554 L19.0775681,36.5859716 Z" id="Fill-261"></path>
                    <path d="M21.802935,36.5859716 L23.477673,36.5859716 L23.477673,34.8821554 L21.802935,34.8821554 L21.802935,36.5859716 Z" id="Fill-262"></path>
                    <path d="M24.5283019,36.5859716 L26.2030398,36.5859716 L26.2030398,34.8821554 L24.5283019,34.8821554 L24.5283019,36.5859716 Z" id="Fill-263"></path>
                    <path d="M27.2536688,36.5859716 L28.9284067,36.5859716 L28.9284067,34.8821554 L27.2536688,34.8821554 L27.2536688,36.5859716 Z" id="Fill-264"></path>
                    <path d="M29.9790356,36.5859716 L31.6537736,36.5859716 L31.6537736,34.8821554 L29.9790356,34.8821554 L29.9790356,36.5859716 Z" id="Fill-265"></path>
                    <path d="M32.7044025,36.5859716 L34.3791405,36.5859716 L34.3791405,34.8821554 L32.7044025,34.8821554 L32.7044025,36.5859716 Z" id="Fill-266"></path>
                    <path d="M35.4297694,36.5857638 L37.1045073,36.5857638 L37.1045073,34.8819476 L35.4297694,34.8819476 L35.4297694,36.5857638 Z" id="Fill-267"></path>
                    <path d="M38.1551363,36.5859716 L39.8298742,36.5859716 L39.8298742,34.8821554 L38.1551363,34.8821554 L38.1551363,36.5859716 Z" id="Fill-268"></path>
                    <path d="M40.8805031,36.5859716 L42.5552411,36.5859716 L42.5552411,34.8821554 L40.8805031,34.8821554 L40.8805031,36.5859716 Z" id="Fill-269"></path>
                    <path d="M43.60587,36.5859716 L45.280608,36.5859716 L45.280608,34.8821554 L43.60587,34.8821554 L43.60587,36.5859716 Z" id="Fill-270"></path>
                    <path d="M46.3312369,36.5859716 L48.0059748,36.5859716 L48.0059748,34.8821554 L46.3312369,34.8821554 L46.3312369,36.5859716 Z" id="Fill-271"></path>
                    <path d="M49.0566038,36.5859716 L50.7313417,36.5859716 L50.7313417,34.8821554 L49.0566038,34.8821554 L49.0566038,36.5859716 Z" id="Fill-272"></path>
                    <path d="M51.7819706,36.5859716 L53.4567086,36.5859716 L53.4567086,34.8821554 L51.7819706,34.8821554 L51.7819706,36.5859716 Z" id="Fill-273"></path>
                    <path d="M54.5073375,36.5859716 L56.1820755,36.5859716 L56.1820755,34.8821554 L54.5073375,34.8821554 L54.5073375,36.5859716 Z" id="Fill-274"></path>
                    <path d="M0,39.0595885 L1.67541929,39.0595885 L1.67541929,37.3557723 L0,37.3557723 L0,39.0595885 Z" id="Fill-275"></path>
                    <path d="M2.72536688,39.0595885 L4.40010482,39.0595885 L4.40010482,37.3557723 L2.72536688,37.3557723 L2.72536688,39.0595885 Z" id="Fill-276"></path>
                    <path d="M5.45073375,39.0595885 L7.1254717,39.0595885 L7.1254717,37.3557723 L5.45073375,37.3557723 L5.45073375,39.0595885 Z" id="Fill-277"></path>
                    <path d="M8.17610063,39.0595885 L9.85083857,39.0595885 L9.85083857,37.3557723 L8.17610063,37.3557723 L8.17610063,39.0595885 Z" id="Fill-278"></path>
                    <path d="M10.9014675,39.0595885 L12.5762055,39.0595885 L12.5762055,37.3557723 L10.9014675,37.3557723 L10.9014675,39.0595885 Z" id="Fill-279"></path>
                    <path d="M13.6268344,39.0595885 L15.3015723,39.0595885 L15.3015723,37.3557723 L13.6268344,37.3557723 L13.6268344,39.0595885 Z" id="Fill-280"></path>
                    <path d="M16.3522013,39.0595885 L18.0269392,39.0595885 L18.0269392,37.3557723 L16.3522013,37.3557723 L16.3522013,39.0595885 Z" id="Fill-281"></path>
                    <path d="M19.0775681,39.0595885 L20.7523061,39.0595885 L20.7523061,37.3557723 L19.0775681,37.3557723 L19.0775681,39.0595885 Z" id="Fill-282"></path>
                    <path d="M21.802935,39.0595885 L23.477673,39.0595885 L23.477673,37.3557723 L21.802935,37.3557723 L21.802935,39.0595885 Z" id="Fill-283"></path>
                    <path d="M24.5283019,39.0595885 L26.2030398,39.0595885 L26.2030398,37.3557723 L24.5283019,37.3557723 L24.5283019,39.0595885 Z" id="Fill-284"></path>
                    <path d="M27.2536688,39.0595885 L28.9284067,39.0595885 L28.9284067,37.3557723 L27.2536688,37.3557723 L27.2536688,39.0595885 Z" id="Fill-285"></path>
                    <path d="M29.9790356,39.0595885 L31.6537736,39.0595885 L31.6537736,37.3557723 L29.9790356,37.3557723 L29.9790356,39.0595885 Z" id="Fill-286"></path>
                    <path d="M32.7044025,39.0595885 L34.3791405,39.0595885 L34.3791405,37.3557723 L32.7044025,37.3557723 L32.7044025,39.0595885 Z" id="Fill-287"></path>
                    <path d="M35.4297694,39.0595885 L37.1045073,39.0595885 L37.1045073,37.3557723 L35.4297694,37.3557723 L35.4297694,39.0595885 Z" id="Fill-288"></path>
                    <path d="M38.1551363,39.0595885 L39.8298742,39.0595885 L39.8298742,37.3557723 L38.1551363,37.3557723 L38.1551363,39.0595885 Z" id="Fill-289"></path>
                    <path d="M40.8805031,39.0595885 L42.5552411,39.0595885 L42.5552411,37.3557723 L40.8805031,37.3557723 L40.8805031,39.0595885 Z" id="Fill-290"></path>
                    <path d="M43.60587,39.0595885 L45.280608,39.0595885 L45.280608,37.3557723 L43.60587,37.3557723 L43.60587,39.0595885 Z" id="Fill-291"></path>
                    <path d="M46.3312369,39.0595885 L48.0059748,39.0595885 L48.0059748,37.3557723 L46.3312369,37.3557723 L46.3312369,39.0595885 Z" id="Fill-292"></path>
                    <path d="M49.0566038,39.0595885 L50.7313417,39.0595885 L50.7313417,37.3557723 L49.0566038,37.3557723 L49.0566038,39.0595885 Z" id="Fill-293"></path>
                    <path d="M51.7819706,39.0595885 L53.4567086,39.0595885 L53.4567086,37.3557723 L51.7819706,37.3557723 L51.7819706,39.0595885 Z" id="Fill-294"></path>
                    <path d="M54.5073375,39.0595885 L56.1820755,39.0595885 L56.1820755,37.3557723 L54.5073375,37.3557723 L54.5073375,39.0595885 Z" id="Fill-295"></path>
                    <path d="M2.72536688,41.5332054 L4.40010482,41.5332054 L4.40010482,39.8293892 L2.72536688,39.8293892 L2.72536688,41.5332054 Z" id="Fill-296"></path>
                    <path d="M5.45073375,41.5332054 L7.1254717,41.5332054 L7.1254717,39.8293892 L5.45073375,39.8293892 L5.45073375,41.5332054 Z" id="Fill-297"></path>
                    <path d="M8.17610063,41.5332054 L9.85083857,41.5332054 L9.85083857,39.8293892 L8.17610063,39.8293892 L8.17610063,41.5332054 Z" id="Fill-298"></path>
                    <path d="M10.9014675,41.5332054 L12.5762055,41.5332054 L12.5762055,39.8293892 L10.9014675,39.8293892 L10.9014675,41.5332054 Z" id="Fill-299"></path>
                    <path d="M13.6268344,41.5332054 L15.3015723,41.5332054 L15.3015723,39.8293892 L13.6268344,39.8293892 L13.6268344,41.5332054 Z" id="Fill-300"></path>
                    <path d="M16.3522013,41.5332054 L18.0269392,41.5332054 L18.0269392,39.8293892 L16.3522013,39.8293892 L16.3522013,41.5332054 Z" id="Fill-301"></path>
                    <path d="M19.0775681,41.5332054 L20.7523061,41.5332054 L20.7523061,39.8293892 L19.0775681,39.8293892 L19.0775681,41.5332054 Z" id="Fill-302"></path>
                    <path d="M21.802935,41.5332054 L23.477673,41.5332054 L23.477673,39.8293892 L21.802935,39.8293892 L21.802935,41.5332054 Z" id="Fill-303"></path>
                    <path d="M24.5283019,41.5332054 L26.2030398,41.5332054 L26.2030398,39.8293892 L24.5283019,39.8293892 L24.5283019,41.5332054 Z" id="Fill-323"></path>
                    <path d="M27.2536688,41.5332054 L28.9284067,41.5332054 L28.9284067,39.8293892 L27.2536688,39.8293892 L27.2536688,41.5332054 Z" id="Fill-324"></path>
                    <path d="M29.9790356,41.5332054 L31.6537736,41.5332054 L31.6537736,39.8293892 L29.9790356,39.8293892 L29.9790356,41.5332054 Z" id="Fill-325"></path>
                    <path d="M32.7044025,41.5332054 L34.3791405,41.5332054 L34.3791405,39.8293892 L32.7044025,39.8293892 L32.7044025,41.5332054 Z" id="Fill-326"></path>
                    <path d="M35.4297694,41.5332054 L37.1045073,41.5332054 L37.1045073,39.8293892 L35.4297694,39.8293892 L35.4297694,41.5332054 Z" id="Fill-327"></path>
                    <path d="M38.1551363,41.5332054 L39.8298742,41.5332054 L39.8298742,39.8293892 L38.1551363,39.8293892 L38.1551363,41.5332054 Z" id="Fill-328"></path>
                    <path d="M40.8805031,41.5332054 L42.5552411,41.5332054 L42.5552411,39.8293892 L40.8805031,39.8293892 L40.8805031,41.5332054 Z" id="Fill-329"></path>
                    <path d="M43.60587,41.5332054 L45.280608,41.5332054 L45.280608,39.8293892 L43.60587,39.8293892 L43.60587,41.5332054 Z" id="Fill-330"></path>
                    <path d="M46.3312369,41.5332054 L48.0059748,41.5332054 L48.0059748,39.8293892 L46.3312369,39.8293892 L46.3312369,41.5332054 Z" id="Fill-331"></path>
                    <path d="M49.0566038,41.5332054 L50.7313417,41.5332054 L50.7313417,39.8293892 L49.0566038,39.8293892 L49.0566038,41.5332054 Z" id="Fill-332"></path>
                    <path d="M51.7819706,41.5332054 L53.4567086,41.5332054 L53.4567086,39.8293892 L51.7819706,39.8293892 L51.7819706,41.5332054 Z" id="Fill-333"></path>
                    <path d="M54.5073375,41.5332054 L56.1820755,41.5332054 L56.1820755,39.8293892 L54.5073375,39.8293892 L54.5073375,41.5332054 Z" id="Fill-334"></path>
                </g>
            </g>
            <path d="M69.0283098,24.4818284 L74.6343349,24.4818284 C75.4091553,24.4818284 76.1573774,24.553992 76.8790239,24.6983212 C77.6006703,24.8426505 78.2425461,25.0895259 78.8046707,25.4389546 C79.3667953,25.7883834 79.814969,26.2593456 80.1492052,26.8518553 C80.4834414,27.444365 80.650557,28.1963852 80.650557,29.1079386 C80.650557,30.2777654 80.3277201,31.2576706 79.6820364,32.0476835 C79.0363528,32.8376964 78.1134189,33.3162547 76.9132069,33.4833729 L81.1974863,40.6162423 L77.7336009,40.6162423 L73.9962508,33.7796262 L71.8996885,33.7796262 L71.8996885,40.6162423 L69.0283098,40.6162423 L69.0283098,24.4818284 Z M74.1329831,31.3184444 C74.5431821,31.3184444 74.953375,31.299454 75.363574,31.2614726 C75.773773,31.2234913 76.1497831,31.1323373 76.4916156,30.988008 C76.8334481,30.8436787 77.1107081,30.62339 77.3234039,30.3271351 C77.5360997,30.0308803 77.642446,29.6168893 77.642446,29.0851499 C77.642446,28.6141806 77.5436959,28.2343724 77.3461926,27.9457139 C77.1486894,27.6570553 76.8904198,27.4405646 76.5713761,27.2962353 C76.2523325,27.1519061 75.8991108,27.056954 75.5117006,27.0113763 C75.1242905,26.9657987 74.7482803,26.9430102 74.383659,26.9430102 L71.8996885,26.9430102 L71.8996885,31.3184444 L74.1329831,31.3184444 Z M85.5764266,24.4818284 L96.2643363,24.4818284 L96.2643363,27.0797425 L88.4478053,27.0797425 L88.4478053,31.0449798 L95.8541394,31.0449798 L95.8541394,33.6428939 L88.4478053,33.6428939 L88.4478053,38.0183282 L96.6745333,38.0183282 L96.6745333,40.6162423 L85.5764266,40.6162423 L85.5764266,24.4818284 Z M101.691558,24.4818284 L107.115273,24.4818284 C107.890093,24.4818284 108.638316,24.55779 109.359962,24.7097156 C110.081608,24.8616412 110.715888,25.1161127 111.26282,25.4731377 C111.809752,25.8301628 112.246532,26.3087211 112.573172,26.9088271 C112.899812,27.5089331 113.063129,28.2571552 113.063129,29.153516 C113.063129,30.1714173 112.888417,30.991803 112.538988,31.6146978 C112.18956,32.2375926 111.718598,32.719949 111.126088,33.0617815 C110.533578,33.4036141 109.846125,33.6352971 109.063709,33.7568375 C108.281292,33.878378 107.464704,33.9391473 106.613921,33.9391473 L104.562936,33.9391473 L104.562936,40.6162423 L101.691558,40.6162423 L101.691558,24.4818284 Z M106.294879,31.4779655 C106.705078,31.4779655 107.130463,31.4627732 107.571047,31.432388 C108.011632,31.4020029 108.418026,31.310849 108.790244,31.1589234 C109.162462,31.0069978 109.466308,30.7791129 109.701793,30.4752618 C109.937277,30.1714107 110.055018,29.7460255 110.055018,29.1990935 C110.055018,28.6977391 109.948672,28.2989405 109.735976,28.0026857 C109.52328,27.7064308 109.249818,27.4785459 108.915582,27.3190241 C108.581346,27.1595022 108.209134,27.056954 107.798935,27.0113763 C107.388736,26.9657987 106.993735,26.9430102 106.613921,26.9430102 L104.562936,26.9430102 L104.562936,31.4779655 L106.294879,31.4779655 Z M116.940717,32.6174015 C116.940717,31.3260342 117.15341,30.1524269 117.578802,29.0965442 C118.004193,28.0406616 118.592896,27.1405161 119.344927,26.3960809 C120.096959,25.6516456 120.993306,25.0781353 122.033996,24.6755325 C123.074686,24.2729298 124.217909,24.0716314 125.463699,24.0716314 C126.724681,24.0564389 127.879298,24.2425449 128.927584,24.6299551 C129.975871,25.0173653 130.879814,25.5832795 131.639442,26.3277147 C132.39907,27.07215 132.991571,27.9684973 133.416962,29.0167837 C133.842354,30.0650701 134.055046,31.2348794 134.055046,32.5262466 C134.055046,33.7872288 133.842354,34.9342495 133.416962,35.9673434 C132.991571,37.0004372 132.39907,37.8891884 131.639442,38.6336236 C130.879814,39.3780589 129.975871,39.9591654 128.927584,40.3769607 C127.879298,40.794756 126.724681,41.0112467 125.463699,41.0264392 C124.217909,41.0264392 123.074686,40.8251409 122.033996,40.4225382 C120.993306,40.0199354 120.096959,39.4502231 119.344927,38.7133841 C118.592896,37.9765452 118.004193,37.0915921 117.578802,36.0584982 C117.15341,35.0254044 116.940717,33.8783837 116.940717,32.6174015 L116.940717,32.6174015 Z M119.948828,32.4350917 C119.948828,33.3010674 120.081761,34.0986647 120.347631,34.8279074 C120.613501,35.55715 120.989511,36.1876317 121.475673,36.7193711 C121.961835,37.2511106 122.542941,37.6688996 123.21901,37.9727507 C123.895079,38.2766019 124.650897,38.4285251 125.486487,38.4285251 C126.322078,38.4285251 127.081694,38.2766019 127.765359,37.9727507 C128.449025,37.6688996 129.033929,37.2511106 129.520091,36.7193711 C130.006253,36.1876317 130.382263,35.55715 130.648133,34.8279074 C130.914002,34.0986647 131.046935,33.3010674 131.046935,32.4350917 C131.046935,31.6298863 130.914002,30.877866 130.648133,30.1790084 C130.382263,29.4801509 130.006253,28.8686597 129.520091,28.3445165 C129.033929,27.8203733 128.449025,27.4101804 127.765359,27.1139256 C127.081694,26.8176707 126.322078,26.6695455 125.486487,26.6695455 C124.650897,26.6695455 123.895079,26.8176707 123.21901,27.1139256 C122.542941,27.4101804 121.961835,27.8203733 121.475673,28.3445165 C120.989511,28.8686597 120.613501,29.4801509 120.347631,30.1790084 C120.081761,30.877866 119.948828,31.6298863 119.948828,32.4350917 L119.948828,32.4350917 Z M138.980916,24.4818284 L144.586941,24.4818284 C145.361761,24.4818284 146.109983,24.553992 146.83163,24.6983212 C147.553276,24.8426505 148.195152,25.0895259 148.757277,25.4389546 C149.319401,25.7883834 149.767575,26.2593456 150.101811,26.8518553 C150.436047,27.444365 150.603163,28.1963852 150.603163,29.1079386 C150.603163,30.2777654 150.280326,31.2576706 149.634642,32.0476835 C148.988959,32.8376964 148.066025,33.3162547 146.865813,33.4833729 L151.150092,40.6162423 L147.686207,40.6162423 L143.948857,33.7796262 L141.852295,33.7796262 L141.852295,40.6162423 L138.980916,40.6162423 L138.980916,24.4818284 Z M144.085589,31.3184444 C144.495788,31.3184444 144.905981,31.299454 145.31618,31.2614726 C145.726379,31.2234913 146.102389,31.1323373 146.444222,30.988008 C146.786054,30.8436787 147.063314,30.62339 147.27601,30.3271351 C147.488706,30.0308803 147.595052,29.6168893 147.595052,29.0851499 C147.595052,28.6141806 147.496302,28.2343724 147.298799,27.9457139 C147.101295,27.6570553 146.843026,27.4405646 146.523982,27.2962353 C146.204938,27.1519061 145.851717,27.056954 145.464307,27.0113763 C145.076896,26.9657987 144.700886,26.9430102 144.336265,26.9430102 L141.852295,26.9430102 L141.852295,31.3184444 L144.085589,31.3184444 Z M158.4232,27.0797425 L153.478048,27.0797425 L153.478048,24.4818284 L166.239731,24.4818284 L166.239731,27.0797425 L161.294579,27.0797425 L161.294579,40.6162423 L158.4232,40.6162423 L158.4232,27.0797425 Z M170.390784,24.4818284 L181.078694,24.4818284 L181.078694,27.0797425 L173.262163,27.0797425 L173.262163,31.0449798 L180.668497,31.0449798 L180.668497,33.6428939 L173.262163,33.6428939 L173.262163,38.0183282 L181.488891,38.0183282 L181.488891,40.6162423 L170.390784,40.6162423 L170.390784,24.4818284 Z M186.505915,24.4818284 L192.11194,24.4818284 C192.886761,24.4818284 193.634983,24.553992 194.356629,24.6983212 C195.078276,24.8426505 195.720152,25.0895259 196.282276,25.4389546 C196.844401,25.7883834 197.292574,26.2593456 197.626811,26.8518553 C197.961047,27.444365 198.128162,28.1963852 198.128162,29.1079386 C198.128162,30.2777654 197.805325,31.2576706 197.159642,32.0476835 C196.513958,32.8376964 195.591024,33.3162547 194.390812,33.4833729 L198.675092,40.6162423 L195.211206,40.6162423 L191.473856,33.7796262 L189.377294,33.7796262 L189.377294,40.6162423 L186.505915,40.6162423 L186.505915,24.4818284 Z M191.610589,31.3184444 C192.020788,31.3184444 192.43098,31.299454 192.841179,31.2614726 C193.251378,31.2234913 193.627389,31.1323373 193.969221,30.988008 C194.311054,30.8436787 194.588314,30.62339 194.801009,30.3271351 C195.013705,30.0308803 195.120051,29.6168893 195.120051,29.0851499 C195.120051,28.6141806 195.021301,28.2343724 194.823798,27.9457139 C194.626295,27.6570553 194.368025,27.4405646 194.048982,27.2962353 C193.729938,27.1519061 193.376716,27.056954 192.989306,27.0113763 C192.601896,26.9657987 192.225886,26.9430102 191.861264,26.9430102 L189.377294,26.9430102 L189.377294,31.3184444 L191.610589,31.3184444 Z" id="REPORTER" fill="#C34500" sketch:type="MSShapeGroup"></path>
            <path d="M77.318145,6.96095699 C76.9815714,6.50868628 76.5661197,6.16948834 76.0717773,5.94335298 C75.5774349,5.71721763 75.0620644,5.60415165 74.5256503,5.60415165 C73.9050928,5.60415165 73.334504,5.73036484 72.8138668,5.982795 C72.2932296,6.23522516 71.8435951,6.57442311 71.4649498,7.000399 C71.0863046,7.4263749 70.7918072,7.92070989 70.5814487,8.48341879 C70.3710902,9.0461277 70.2659126,9.63249313 70.2659126,10.2425327 C70.2659126,10.8946439 70.3710902,11.5020449 70.5814487,12.0647538 C70.7918072,12.6274627 71.0836752,13.1165388 71.4570614,13.5319968 C71.8304477,13.9474548 72.2774528,14.276135 72.79809,14.5180472 C73.3187272,14.7599594 73.8945749,14.8809137 74.5256503,14.8809137 C75.2093153,14.8809137 75.8193457,14.7468122 76.3557598,14.4786052 C76.8921739,14.2103981 77.3602145,13.8238702 77.7598955,13.3190099 L78.7538343,14.1551806 C78.248974,14.8283277 77.641573,15.3226627 76.9316132,15.6382004 C76.2216534,15.9537381 75.4196737,16.1115046 74.5256503,16.1115046 C73.7262881,16.1115046 72.9795267,15.9642559 72.2853438,15.669754 C71.5911608,15.3752522 70.9890187,14.9676888 70.4788994,14.4470516 C69.9687802,13.9264144 69.5691051,13.3084956 69.2798622,12.5932768 C68.9906193,11.878058 68.846,11.0944845 68.846,10.2425327 C68.846,9.42213466 68.9853604,8.65433777 69.2640854,7.93911898 C69.5428103,7.22390018 69.9345971,6.60335201 70.4394574,6.07745584 C70.9443178,5.55155967 71.5438304,5.13610792 72.2380133,4.83108814 C72.9321963,4.52606836 73.6947343,4.37356076 74.5256503,4.37356076 C75.2829407,4.37356076 76.011296,4.51029171 76.7107379,4.78375772 C77.4101798,5.05722373 77.9965453,5.50422877 78.4698518,6.12478626 L77.318145,6.96095699 Z M82.1440947,12.1357494 C82.1440947,11.5572637 82.2440135,11.0313754 82.443854,10.5580688 C82.6436946,10.0847623 82.9171565,9.67719884 83.264248,9.33536633 C83.6113394,8.99353382 84.0267912,8.72796024 84.5106156,8.53863762 C84.9944401,8.34931499 85.5203284,8.2546551 86.0882963,8.2546551 C86.6562641,8.2546551 87.1821524,8.34931499 87.6659769,8.53863762 C88.1498014,8.72796024 88.5652531,8.99353382 88.9123446,9.33536633 C89.2594361,9.67719884 89.532898,10.0847623 89.7327385,10.5580688 C89.9325791,11.0313754 90.0324978,11.5572637 90.0324978,12.1357494 C90.0324978,12.7142352 89.9325791,13.2401235 89.7327385,13.7134301 C89.532898,14.1867366 89.2594361,14.5943 88.9123446,14.9361326 C88.5652531,15.2779651 88.1498014,15.5435387 87.6659769,15.7328613 C87.1821524,15.9221839 86.6562641,16.0168438 86.0882963,16.0168438 C85.5203284,16.0168438 84.9944401,15.9221839 84.5106156,15.7328613 C84.0267912,15.5435387 83.6113394,15.2779651 83.264248,14.9361326 C82.9171565,14.5943 82.6436946,14.1867366 82.443854,13.7134301 C82.2440135,13.2401235 82.1440947,12.7142352 82.1440947,12.1357494 L82.1440947,12.1357494 Z M83.4693464,12.1357494 C83.4693464,12.5249126 83.5298236,12.8851461 83.6507797,13.2164607 C83.7717358,13.5477753 83.9479084,13.8370138 84.1793027,14.084185 C84.410697,14.3313562 84.6867884,14.5259349 85.007585,14.6679269 C85.3283817,14.8099188 85.6886152,14.8809137 86.0882963,14.8809137 C86.4879774,14.8809137 86.8482108,14.8099188 87.1690075,14.6679269 C87.4898042,14.5259349 87.7658955,14.3313562 87.9972898,14.084185 C88.2286841,13.8370138 88.4048567,13.5477753 88.5258128,13.2164607 C88.646769,12.8851461 88.7072461,12.5249126 88.7072461,12.1357494 C88.7072461,11.7465863 88.646769,11.3863528 88.5258128,11.0550382 C88.4048567,10.7237236 88.2286841,10.4344851 87.9972898,10.1873139 C87.7658955,9.94014267 87.4898042,9.74556401 87.1690075,9.60357204 C86.8482108,9.46158007 86.4879774,9.39058515 86.0882963,9.39058515 C85.6886152,9.39058515 85.3283817,9.46158007 85.007585,9.60357204 C84.6867884,9.74556401 84.410697,9.94014267 84.1793027,10.1873139 C83.9479084,10.4344851 83.7717358,10.7237236 83.6507797,11.0550382 C83.5298236,11.3863528 83.4693464,11.7465863 83.4693464,12.1357494 L83.4693464,12.1357494 Z M94.1327145,10.1952023 C94.1327145,9.85862872 94.1221967,9.54309575 94.1011609,9.2485939 C94.080125,8.95409204 94.0696073,8.68588902 94.0696073,8.44397678 L95.2370909,8.44397678 C95.2370909,8.64381732 95.2423498,8.84365487 95.2528677,9.04349542 C95.2633857,9.24333596 95.2686445,9.44843239 95.2686445,9.65879086 L95.3001982,9.65879086 C95.3843415,9.47998616 95.5026664,9.30644303 95.6551763,9.13815625 C95.8076862,8.96986948 95.9891176,8.81999132 96.1994761,8.68851728 C96.4098346,8.55704323 96.6464843,8.45186558 96.9094324,8.37298115 C97.1723805,8.29409672 97.4563602,8.2546551 97.7613799,8.2546551 C98.161061,8.2546551 98.4950001,8.30461449 98.7632071,8.40453476 C99.0314142,8.50445503 99.2549167,8.62540934 99.4337214,8.76740131 C99.6125261,8.90939327 99.7518865,9.06190088 99.8518068,9.22492869 C99.951727,9.3879565 100.03324,9.53257578 100.096347,9.65879086 C100.369813,9.21703808 100.685346,8.87258125 101.042956,8.62541005 C101.400565,8.37823885 101.863347,8.2546551 102.431315,8.2546551 C102.957211,8.2546551 103.398957,8.32565002 103.756566,8.46764199 C104.114176,8.60963395 104.403414,8.81473038 104.624291,9.08293743 C104.845167,9.35114448 105.002934,9.67719522 105.097595,10.0610994 C105.192256,10.4450036 105.239586,10.8736026 105.239586,11.3469091 L105.239586,15.8275221 L104.008995,15.8275221 L104.008995,11.4100164 C104.008995,11.1575862 103.982701,10.9104187 103.930111,10.6685065 C103.877522,10.4265942 103.782862,10.21098 103.646129,10.0216574 C103.509396,9.83233478 103.325335,9.67982718 103.09394,9.56413002 C102.862546,9.44843287 102.568049,9.39058515 102.210439,9.39058515 C101.947491,9.39058515 101.700324,9.44317398 101.468929,9.54835322 C101.237535,9.65353245 101.035068,9.80078117 100.861522,9.99010379 C100.687977,10.1794264 100.551246,10.4081878 100.451325,10.6763949 C100.351405,10.9446019 100.301446,11.2417288 100.301446,11.5677844 L100.301446,15.8275221 L99.0708549,15.8275221 L99.0708549,11.6466685 C99.0708549,10.8262704 98.9604183,10.2451639 98.7395419,9.90333136 C98.5186655,9.56149885 98.1558026,9.39058515 97.6509423,9.39058515 C97.2512612,9.39058515 96.9068044,9.45895063 96.6175615,9.59568364 C96.3283186,9.73241664 96.0916689,9.92699531 95.9076052,10.1794255 C95.7235415,10.4318556 95.5868106,10.731612 95.4974082,11.0787034 C95.4080059,11.4257949 95.3633054,11.8096933 95.3633054,12.2304103 L95.3633054,15.8275221 L94.1327145,15.8275221 L94.1327145,10.1952023 Z M109.765777,10.1952023 C109.765777,9.85862872 109.755259,9.54309575 109.734223,9.2485939 C109.713187,8.95409204 109.702669,8.68588902 109.702669,8.44397678 L110.870153,8.44397678 C110.870153,8.64381732 110.875412,8.84365487 110.88593,9.04349542 C110.896448,9.24333596 110.901707,9.44843239 110.901707,9.65879086 L110.93326,9.65879086 C111.017404,9.47998616 111.135728,9.30644303 111.288238,9.13815625 C111.440748,8.96986948 111.62218,8.81999132 111.832538,8.68851728 C112.042897,8.55704323 112.279546,8.45186558 112.542494,8.37298115 C112.805443,8.29409672 113.089422,8.2546551 113.394442,8.2546551 C113.794123,8.2546551 114.128062,8.30461449 114.396269,8.40453476 C114.664476,8.50445503 114.887979,8.62540934 115.066783,8.76740131 C115.245588,8.90939327 115.384949,9.06190088 115.484869,9.22492869 C115.584789,9.3879565 115.666302,9.53257578 115.729409,9.65879086 C116.002875,9.21703808 116.318408,8.87258125 116.676018,8.62541005 C117.033627,8.37823885 117.496409,8.2546551 118.064377,8.2546551 C118.590273,8.2546551 119.032019,8.32565002 119.389628,8.46764199 C119.747238,8.60963395 120.036476,8.81473038 120.257353,9.08293743 C120.478229,9.35114448 120.635996,9.67719522 120.730657,10.0610994 C120.825318,10.4450036 120.872648,10.8736026 120.872648,11.3469091 L120.872648,15.8275221 L119.642057,15.8275221 L119.642057,11.4100164 C119.642057,11.1575862 119.615763,10.9104187 119.563173,10.6685065 C119.510584,10.4265942 119.415924,10.21098 119.279191,10.0216574 C119.142458,9.83233478 118.958397,9.67982718 118.727002,9.56413002 C118.495608,9.44843287 118.201111,9.39058515 117.843501,9.39058515 C117.580553,9.39058515 117.333386,9.44317398 117.101991,9.54835322 C116.870597,9.65353245 116.66813,9.80078117 116.494584,9.99010379 C116.321039,10.1794264 116.184308,10.4081878 116.084387,10.6763949 C115.984467,10.9446019 115.934508,11.2417288 115.934508,11.5677844 L115.934508,15.8275221 L114.703917,15.8275221 L114.703917,11.6466685 C114.703917,10.8262704 114.59348,10.2451639 114.372604,9.90333136 C114.151728,9.56149885 113.788865,9.39058515 113.284004,9.39058515 C112.884323,9.39058515 112.539866,9.45895063 112.250624,9.59568364 C111.961381,9.73241664 111.724731,9.92699531 111.540667,10.1794255 C111.356604,10.4318556 111.219873,10.731612 111.13047,11.0787034 C111.041068,11.4257949 110.996367,11.8096933 110.996367,12.2304103 L110.996367,15.8275221 L109.765777,15.8275221 L109.765777,10.1952023 Z M131.835776,14.0762966 C131.835776,14.4128702 131.846293,14.7284031 131.867329,15.022905 C131.888365,15.3174068 131.898883,15.5856099 131.898883,15.8275221 L130.731399,15.8275221 C130.731399,15.6276816 130.72614,15.427844 130.715622,15.2280035 C130.705104,15.0281629 130.699845,14.8230665 130.699845,14.612708 L130.668292,14.612708 C130.584148,14.7915127 130.465824,14.9650559 130.313314,15.1333426 C130.160804,15.3016294 129.979372,15.4515076 129.769014,15.5829816 C129.558655,15.7144557 129.322006,15.8196333 129.059058,15.8985177 C128.79611,15.9774022 128.51213,16.0168438 128.20711,16.0168438 C127.723286,16.0168438 127.305204,15.9432194 126.952854,15.7959685 C126.600504,15.6487176 126.308636,15.4436211 126.077241,15.1806731 C125.845847,14.917725 125.674933,14.5995626 125.564495,14.2261763 C125.454057,13.85279 125.398839,13.4452266 125.398839,13.0034738 L125.398839,8.44397678 L126.629429,8.44397678 L126.629429,12.8772593 C126.629429,13.4978168 126.76616,13.9868929 127.039626,14.3445023 C127.313092,14.7021117 127.739062,14.8809137 128.317548,14.8809137 C128.717229,14.8809137 129.061686,14.8125483 129.350929,14.6758153 C129.640171,14.5390822 129.876821,14.3445036 130.060885,14.0920734 C130.244948,13.8396433 130.381679,13.5398869 130.471082,13.1927955 C130.560484,12.845704 130.605185,12.4618055 130.605185,12.0410886 L130.605185,8.44397678 L131.835776,8.44397678 L131.835776,14.0762966 Z M136.361966,10.1952023 C136.361966,9.85862872 136.351448,9.54309575 136.330412,9.2485939 C136.309376,8.95409204 136.298859,8.68588902 136.298859,8.44397678 L137.466342,8.44397678 C137.466342,8.64381732 137.471601,8.84365487 137.482119,9.04349542 C137.492637,9.24333596 137.497896,9.44843239 137.497896,9.65879086 L137.52945,9.65879086 C137.613593,9.47998616 137.731918,9.30644303 137.884428,9.13815625 C138.036938,8.96986948 138.218369,8.81999132 138.428728,8.68851728 C138.639086,8.55704323 138.875736,8.45186558 139.138684,8.37298115 C139.401632,8.29409672 139.685612,8.2546551 139.990631,8.2546551 C140.474456,8.2546551 140.892537,8.32827946 141.244887,8.47553039 C141.597238,8.62278132 141.889106,8.82787775 142.1205,9.09082583 C142.351895,9.35377392 142.522808,9.67193633 142.633246,10.0453226 C142.743685,10.4187089 142.798903,10.8262723 142.798903,11.2680251 L142.798903,15.8275221 L141.568312,15.8275221 L141.568312,11.3942396 C141.568312,10.7736821 141.431581,10.284606 141.158115,9.92699657 C140.884649,9.56938717 140.45868,9.39058515 139.880194,9.39058515 C139.480513,9.39058515 139.136056,9.45895063 138.846813,9.59568364 C138.55757,9.73241664 138.32092,9.92699531 138.136857,10.1794255 C137.952793,10.4318556 137.816062,10.731612 137.72666,11.0787034 C137.637257,11.4257949 137.592557,11.8096933 137.592557,12.2304103 L137.592557,15.8275221 L136.361966,15.8275221 L136.361966,10.1952023 Z M147.435531,8.44397678 L148.666122,8.44397678 L148.666122,15.8275221 L147.435531,15.8275221 L147.435531,8.44397678 Z M147.151548,5.55682123 C147.151548,5.31490899 147.23832,5.10455368 147.411866,4.92574898 C147.585411,4.74694428 147.798396,4.65754327 148.050826,4.65754327 C148.303257,4.65754327 148.516241,4.74694428 148.689787,4.92574898 C148.863333,5.10455368 148.950104,5.31490899 148.950104,5.55682123 C148.950104,5.81976932 148.865962,6.03538351 148.697675,6.20367029 C148.529389,6.37195706 148.313774,6.45609919 148.050826,6.45609919 C147.787878,6.45609919 147.572264,6.37195706 147.403977,6.20367029 C147.235691,6.03538351 147.151548,5.81976932 147.151548,5.55682123 L147.151548,5.55682123 Z M157.341612,9.48524599 L155.164413,9.48524599 L155.164413,13.1770187 C155.164413,13.4189309 155.169672,13.6424334 155.18019,13.8475329 C155.190708,14.0526324 155.232779,14.2314344 155.306404,14.3839443 C155.38003,14.5364542 155.490466,14.6574085 155.637717,14.7468109 C155.784968,14.8362132 155.995323,14.8809137 156.268789,14.8809137 C156.447594,14.8809137 156.631655,14.8598782 156.820978,14.8178065 C157.0103,14.7757348 157.189102,14.7126282 157.357389,14.6284848 L157.40472,15.7486381 C157.194361,15.8432994 156.960341,15.9116649 156.702652,15.9537366 C156.444963,15.9958083 156.200424,16.0168438 155.96903,16.0168438 C155.527277,16.0168438 155.174932,15.9589961 154.911984,15.8432989 C154.649036,15.7276018 154.44394,15.5645764 154.296689,15.3542179 C154.149438,15.1438595 154.052148,14.8835448 154.004818,14.573266 C153.957487,14.2629873 153.933822,13.9185304 153.933822,13.5398852 L153.933822,9.48524599 L152.324588,9.48524599 L152.324588,8.44397678 L153.933822,8.44397678 L153.933822,6.34566154 L155.164413,6.34566154 L155.164413,8.44397678 L157.341612,8.44397678 L157.341612,9.48524599 Z M161.173623,8.44397678 L162.404214,8.44397678 L162.404214,15.8275221 L161.173623,15.8275221 L161.173623,8.44397678 Z M160.889641,5.55682123 C160.889641,5.31490899 160.976412,5.10455368 161.149958,4.92574898 C161.323504,4.74694428 161.536489,4.65754327 161.788919,4.65754327 C162.041349,4.65754327 162.254334,4.74694428 162.427879,4.92574898 C162.601425,5.10455368 162.688197,5.31490899 162.688197,5.55682123 C162.688197,5.81976932 162.604055,6.03538351 162.435768,6.20367029 C162.267481,6.37195706 162.051867,6.45609919 161.788919,6.45609919 C161.525971,6.45609919 161.310356,6.37195706 161.14207,6.20367029 C160.973783,6.03538351 160.889641,5.81976932 160.889641,5.55682123 L160.889641,5.55682123 Z M173.635547,14.4864936 C173.193794,15.0544614 172.709977,15.4515071 172.184081,15.6776425 C171.658185,15.9037778 171.048154,16.0168438 170.353972,16.0168438 C169.775486,16.0168438 169.254856,15.9142956 168.792068,15.7091961 C168.329279,15.5040966 167.937492,15.2280052 167.616696,14.8809137 C167.295899,14.5338223 167.048731,14.1236294 166.875186,13.6503228 C166.70164,13.1770163 166.614868,12.6721635 166.614868,12.1357494 C166.614868,11.5677816 166.709528,11.0445227 166.898851,10.5659572 C167.088174,10.0873917 167.351118,9.67719884 167.687691,9.33536633 C168.024265,8.99353382 168.42394,8.72796024 168.886729,8.53863762 C169.349517,8.34931499 169.85437,8.2546551 170.401302,8.2546551 C170.91668,8.2546551 171.38998,8.34142667 171.821215,8.51497241 C172.252449,8.68851814 172.623201,8.94094452 172.933479,9.27225911 C173.243758,9.6035737 173.483037,10.0085077 173.651324,10.4870732 C173.819611,10.9656387 173.903753,11.5099331 173.903753,12.1199726 L173.903753,12.5143928 L167.94012,12.5143928 C167.961156,12.8299305 168.03741,13.1323163 168.168884,13.4215592 C168.300358,13.710802 168.471272,13.9632284 168.68163,14.1788459 C168.891989,14.3944633 169.139156,14.565377 169.42314,14.6915921 C169.707124,14.8178071 170.017398,14.8809137 170.353972,14.8809137 C170.890386,14.8809137 171.34265,14.7862538 171.710777,14.5969312 C172.078904,14.4076086 172.410214,14.1288878 172.704716,13.7607605 L173.635547,14.4864936 Z M172.578501,11.4731236 C172.557465,10.8420482 172.352369,10.3371954 171.963206,9.95855018 C171.574043,9.57990494 171.037637,9.39058515 170.353972,9.39058515 C169.670307,9.39058515 169.118124,9.57990494 168.697407,9.95855018 C168.27669,10.3371954 168.024264,10.8420482 167.94012,11.4731236 L172.578501,11.4731236 Z M178.161738,13.8869749 C178.40365,14.1919947 178.669223,14.4339033 178.958466,14.612708 C179.247709,14.7915127 179.613202,14.8809137 180.054954,14.8809137 C180.244277,14.8809137 180.436226,14.8598782 180.630808,14.8178065 C180.825389,14.7757348 181.001562,14.7073693 181.159331,14.612708 C181.3171,14.5180467 181.443313,14.3997219 181.537974,14.2577299 C181.632636,14.1157379 181.679965,13.9448242 181.679965,13.7449837 C181.679965,13.5451431 181.635265,13.3821178 181.545863,13.2559027 C181.45646,13.1296876 181.338135,13.0218805 181.190884,12.9324782 C181.043634,12.8430758 180.875349,12.7720809 180.686027,12.7194913 C180.496704,12.6669017 180.302125,12.6195717 180.102285,12.5775 C179.755193,12.5038746 179.423884,12.4197324 179.108346,12.3250711 C178.792808,12.2304098 178.516717,12.1068261 178.280064,11.9543162 C178.04341,11.8018063 177.854091,11.6045982 177.712099,11.3626859 C177.570107,11.1207737 177.499112,10.8104996 177.499112,10.4318544 C177.499112,10.074245 177.577995,9.758712 177.735764,9.48524599 C177.893533,9.21177998 178.103888,8.98564802 178.366836,8.80684332 C178.629784,8.62803862 178.924282,8.49130767 179.250337,8.39664636 C179.576393,8.30198505 179.912961,8.2546551 180.260053,8.2546551 C180.785949,8.2546551 181.272396,8.35983276 181.719407,8.57019123 C182.166419,8.7805497 182.516135,9.12237708 182.768565,9.59568364 L181.743073,10.2740863 C181.585304,10.0111382 181.377578,9.79815346 181.119889,9.63512565 C180.8622,9.47209784 180.549296,9.39058515 180.181169,9.39058515 C180.012882,9.39058515 179.841968,9.41162069 179.668423,9.45369238 C179.494877,9.49576407 179.33974,9.55887067 179.203007,9.64301405 C179.066274,9.72715744 178.953208,9.83496454 178.863806,9.96643858 C178.774403,10.0979126 178.729703,10.2477908 178.729703,10.4160776 C178.729703,10.5738464 178.779662,10.7079479 178.879582,10.8183861 C178.979503,10.9288243 179.116234,11.0261136 179.289779,11.110257 C179.463325,11.1944004 179.663163,11.2680248 179.889298,11.3311323 C180.115433,11.3942399 180.349454,11.4468287 180.591366,11.4889004 C180.917421,11.5520079 181.227696,11.6335206 181.522197,11.7334409 C181.816699,11.8333612 182.074385,11.9674627 182.295261,12.1357494 C182.516137,12.3040362 182.68968,12.5143915 182.815896,12.7668217 C182.942111,13.0192519 183.005217,13.3295259 183.005217,13.6976533 C183.005217,14.1183702 182.921075,14.4759742 182.752788,14.7704761 C182.584502,15.0649779 182.360999,15.3042571 182.082274,15.4883208 C181.803549,15.6723844 181.488016,15.8064859 181.135666,15.8906293 C180.783315,15.9747727 180.423082,16.0168438 180.054954,16.0168438 C179.423879,16.0168438 178.879585,15.9195545 178.422055,15.7249729 C177.964525,15.5303913 177.551703,15.1701578 177.183576,14.6442616 L178.161738,13.8869749 Z" id="Communities" fill="#244068" sketch:type="MSShapeGroup"></path>
        </g>
    </g>
</svg>