<?xml version="1.0" encoding="UTF-8" standalone="no"?>
<svg width="24px" height="24px" viewBox="0 0 24 24" version="1.1" xmlns="http://www.w3.org/2000/svg" xmlns:xlink="http://www.w3.org/1999/xlink" xmlns:sketch="http://www.bohemiancoding.com/sketch/ns">
    <!-- Generator: Sketch 3.5.2 (25235) - http://www.bohemiancoding.com/sketch -->
    <title>Shape</title>
    <desc>Created with Sketch.</desc>
    <defs></defs>
    <g id="Page-1" stroke="none" stroke-width="1" fill="none" fill-rule="evenodd" sketch:type="MSPage">
        <g id="home-rural" sketch:type="MSArtboardGroup" transform="translate(-450.000000, -396.000000)" fill="#C34500">
            <g id="//-CONTENT-//" sketch:type="MSLayerGroup" transform="translate(0.000000, 80.000000)">
                <g id="::-topics" transform="translate(135.000000, 225.000000)" sketch:type="MSShapeGroup">
                    <path d="M330,94 L330,95.05 C328.86,95.282 328,96.292 328,97.5 C328,98.879 329.122,100 330.5,100 L331.5,100 C331.776,100 332,100.225 332,100.5 C332,100.776 331.776,101 331.5,101 L330,101 L330,104 L332,104 L332,102.95 C333.14,102.717 334,101.707 334,100.5 C334,99.122 332.878,98 331.5,98 L330.5,98 C330.224,98 330,97.776 330,97.5 C330,97.225 330.224,97 330.5,97 L334,97 L334,95 L332,95 L332,94 L330,94 Z M334,109 C334,109.552 333.551,110 333,110 L328,110 L328,112 L332,112 C332,112.552 331.551,113 331,113 L323.414,113 L321,110.586 L321,105.414 L323.414,103 L327,103 L327,104 C327,104.552 326.551,105 326,105 L324,105 L324,107 L326,107 C327.654,107 329,105.654 329,104 L329,102 C329,101.448 328.552,101 328,101 L323,101 C322.735,101 322.48,101.105 322.293,101.293 L320.46,103.127 C320.32,103.053 320.169,103 320,103 L316,103 C315.448,103 315,103.448 315,104 L315,112 C315,112.552 315.448,113 316,113 L320,113 C320.169,113 320.32,112.948 320.46,112.874 L322.293,114.708 C322.48,114.895 322.735,115 323,115 L331,115 C332.654,115 334,113.654 334,112 L334,111.816 C335.162,111.402 336,110.302 336,109 L336,108 L334,108 L334,109 Z M319,111 L317,111 L317,105 L319,105 L319,111 Z M331,91 C326.589,91 323,94.59 323,99 C323,99.34 323.028,99.671 323.069,100 L325.09,100 C325.035,99.675 325,99.342 325,99 C325,95.692 327.691,93 331,93 C334.309,93 337,95.692 337,99 C337,102.309 334.309,105 331,105 C330.659,105 330.326,104.965 330,104.91 L330,106.931 C330.328,106.972 330.661,107 331,107 C335.411,107 339,103.411 339,99 C339,94.59 335.411,91 331,91 Z" id="Shape"></path>
                </g>
            </g>
        </g>
    </g>
</svg>