<?xml version="1.0" encoding="UTF-8" standalone="no"?>
<svg width="20px" height="20px" viewBox="0 0 20 20" version="1.1" xmlns="http://www.w3.org/2000/svg" xmlns:xlink="http://www.w3.org/1999/xlink" xmlns:sketch="http://www.bohemiancoding.com/sketch/ns">
    <!-- Generator: Sketch 3.5.2 (25235) - http://www.bohemiancoding.com/sketch -->
    <title>Shape</title>
    <desc>Created with Sketch.</desc>
    <defs></defs>
    <g id="Page-1" stroke="none" stroke-width="1" fill="none" fill-rule="evenodd" sketch:type="MSPage">
        <g id="home-rural" sketch:type="MSArtboardGroup" transform="translate(-453.000000, -458.000000)" fill="#C34500">
            <g id="//-CONTENT-//" sketch:type="MSLayerGroup" transform="translate(0.000000, 80.000000)">
                <g id="::-topics" transform="translate(135.000000, 225.000000)" sketch:type="MSShapeGroup">
                    <path d="M328.001,170.002 C327.609,170.002 327.253,169.773 327.091,169.416 C326.408,167.916 323.001,160.312 323.001,158.002 C323.001,155.245 325.244,153.002 328.001,153.002 C330.758,153.002 333.001,155.245 333.001,158.002 C333.001,160.312 329.595,167.916 328.911,169.416 C328.75,169.774 328.394,170.002 328.001,170.002 L328.001,170.002 Z M328.001,155.002 C326.347,155.002 325.001,156.348 325.001,158.002 C325.001,159.185 326.594,163.263 328.001,166.529 C329.409,163.262 331.001,159.184 331.001,158.002 C331.001,156.348 329.656,155.002 328.001,155.002 Z M328.001,159.502 C328.829427,159.502 329.501,158.830427 329.501,158.002 C329.501,157.173573 328.829427,156.502 328.001,156.502 C327.172573,156.502 326.501,157.173573 326.501,158.002 C326.501,158.830427 327.172573,159.502 328.001,159.502 Z M335.485,173.002 L320.518,173.002 C319.845,173.002 319.222,172.667 318.849,172.104 C318.476,171.538 318.414,170.832 318.681,170.213 L320.823,165.215 C321.137,164.479 321.859,164.003 322.661,164.003 L323.485,164.003 L323.485,166.003 L322.661,166.003 L320.518,171.003 L335.485,171.003 L333.342,166.003 L332.485,166.003 L332.485,164.003 L333.342,164.003 C334.144,164.003 334.865,164.479 335.18,165.216 L337.322,170.215 C337.588,170.832 337.526,171.538 337.154,172.103 C336.782,172.667 336.158,173.002 335.485,173.002 Z" id="Shape"></path>
                </g>
            </g>
        </g>
    </g>
</svg>