<?xml version="1.0" encoding="UTF-8" standalone="no"?>
<svg width="21px" height="24px" viewBox="0 0 21 24" version="1.1" xmlns="http://www.w3.org/2000/svg" xmlns:xlink="http://www.w3.org/1999/xlink">
    <!-- Generator: Sketch 3.6.1 (26313) - http://www.bohemiancoding.com/sketch -->
    <title>icn-cal</title>
    <desc>Created with Sketch.</desc>
    <defs></defs>
    <g id="Page-1" stroke="none" stroke-width="1" fill="none" fill-rule="evenodd">
        <g id="explore-places" transform="translate(-1021.000000, -388.000000)" fill="#FFFFFF">
            <g id="//-CONTENT-//" transform="translate(135.000000, 110.000000)">
                <g id="::-places" transform="translate(0.000000, 210.000000)">
                    <g id="::-options">
                        <path d="M906.148195,86.838876 L905.650322,85.6564628 C905.542855,85.4001933 905.304719,85.0657896 905.09885,84.8793875 L895.476076,76.2022245 C895.376608,76.1128901 895.275807,75.894221 895.272341,75.7603529 L895.100605,68.9336104 C895.090205,68.5261392 894.750468,68.1874687 894.342997,68.1773353 L886.803446,68 L886.785313,68 C886.571177,68 886.379975,68.0914677 886.262374,68.2506695 C886.144506,68.4109379 886.112505,68.6216069 886.175439,68.8285425 L886.559977,70.0885565 C886.606911,70.2432249 886.612778,70.5373615 886.571444,70.6928299 L886.26024,71.8592429 C886.190373,72.1235125 886.162906,72.527517 886.19864,72.79872 L886.52931,75.376082 C886.567177,75.6632851 886.730646,76.0502228 886.911448,76.2766253 L888.222929,77.9201102 C888.386664,78.1259792 888.689867,78.3974489 888.911736,78.5379838 L889.25974,78.7577195 C889.338675,78.8081201 889.408542,78.9579884 889.396009,79.0507895 L889.326141,79.5646618 C889.286141,79.8633318 889.368542,80.2857365 889.51841,80.5465394 L889.56641,80.630007 C889.716279,80.8910766 890.011482,81.1644129 890.248551,81.2652141 C890.268018,81.2790809 890.306952,81.353215 890.292019,81.4286825 L890.232551,81.7478861 C890.174151,82.0558895 890.261085,82.4862943 890.43282,82.7494972 L892.970182,86.6188735 C893.14405,86.8842098 893.512588,87.1292792 893.825124,87.1876799 L894.796869,87.3698152 C894.93527,87.3962155 895.155006,87.5311503 895.239807,87.6431516 L895.606211,88.127157 C895.80408,88.3871599 896.199017,88.5940955 896.525154,88.609029 L896.888092,88.6252958 C897.047027,88.6319626 897.320363,88.7271636 897.451031,88.819698 L899.178784,90.0511783 C899.302519,90.140246 899.46492,90.3623818 899.511854,90.5077168 L899.795591,91.3991933 C899.906792,91.7485305 900.255863,92 900.624133,92 C900.644667,92 900.6652,92 900.684934,91.9978666 L904.712445,91.6853298 C905.125517,91.6533295 905.43912,91.2906588 905.411653,90.8775875 L905.330319,89.6610407 C905.319919,89.5007722 905.381519,89.2146357 905.45832,89.0727675 L906.100194,87.8780875 C906.254329,87.5882176 906.276196,87.1420794 906.148195,86.838876" id="icn-cal"></path>
                    </g>
                </g>
            </g>
        </g>
    </g>
</svg>