<?xml version="1.0" encoding="UTF-8" standalone="no"?>
<svg width="16px" height="12px" viewBox="0 0 16 12" version="1.1" xmlns="http://www.w3.org/2000/svg" xmlns:xlink="http://www.w3.org/1999/xlink">
    <!-- Generator: Sketch 3.8.3 (29802) - http://www.bohemiancoding.com/sketch -->
    <title>icn-menu</title>
    <desc>Created with Sketch.</desc>
    <defs></defs>
    <g id="Page-1" stroke="none" stroke-width="1" fill="none" fill-rule="evenodd">
        <g id="detail-title-expand" transform="translate(-672.000000, -669.000000)" fill="#AEB2BD">
            <g id="//-CONTENT-//" transform="translate(0.000000, -107.000000)">
                <g id="::-graph1" transform="translate(135.000000, 744.000000)">
                    <g id="::-btn-menu" transform="translate(530.000000, 23.000000)">
                        <path d="M22.3142857,13.5714286 L7.68571429,13.5714286 C7.05485714,13.5714286 7,14.0822857 7,14.7142857 C7,15.3462857 7.05485714,15.8571429 7.68571429,15.8571429 L22.3142857,15.8571429 C22.9451429,15.8571429 23,15.3462857 23,14.7142857 C23,14.0822857 22.9451429,13.5714286 22.3142857,13.5714286 L22.3142857,13.5714286 Z M22.3142857,18.1428571 L7.68571429,18.1428571 C7.05485714,18.1428571 7,18.6537143 7,19.2857143 C7,19.9177143 7.05485714,20.4285714 7.68571429,20.4285714 L22.3142857,20.4285714 C22.9451429,20.4285714 23,19.9177143 23,19.2857143 C23,18.6537143 22.9451429,18.1428571 22.3142857,18.1428571 L22.3142857,18.1428571 Z M7.68571429,11.2857143 L22.3142857,11.2857143 C22.9451429,11.2857143 23,10.7748571 23,10.1428571 C23,9.51085714 22.9451429,9 22.3142857,9 L7.68571429,9 C7.05485714,9 7,9.51085714 7,10.1428571 C7,10.7748571 7.05485714,11.2857143 7.68571429,11.2857143 L7.68571429,11.2857143 Z" id="icn-menu"></path>
                    </g>
                </g>
            </g>
        </g>
    </g>
</svg>