<?xml version="1.0" encoding="UTF-8" standalone="no"?>
<svg width="15px" height="17px" viewBox="0 0 15 17" version="1.1" xmlns="http://www.w3.org/2000/svg" xmlns:xlink="http://www.w3.org/1999/xlink">
    <!-- Generator: Sketch 3.6.1 (26313) - http://www.bohemiancoding.com/sketch -->
    <title>icn-download</title>
    <desc>Created with Sketch.</desc>
    <defs></defs>
    <g id="Page-1" stroke="none" stroke-width="1" fill="none" fill-rule="evenodd">
        <g id="explore-places-all" transform="translate(-1000.000000, -816.000000)" fill="#D1CDC7">
            <g id="//-FEED-//" transform="translate(135.000000, 780.000000)">
                <g id="::-actions" transform="translate(857.000000, 30.000000)">
                    <path d="M22.125,10.85625 L22.125,20.56875 C22.125,21.7182938 21.1932938,22.65 20.04375,22.65 L10.33125,22.65 C9.18170625,22.65 8.25,21.7182938 8.25,20.56875 L8.25,10.85625 C8.25,9.70670625 9.18170625,8.775 10.33125,8.775 L13.10625,8.775 L13.10625,10.1625 L10.33125,10.1625 C9.94812656,10.1625 9.6375,10.4731266 9.6375,10.85625 L9.6375,20.56875 C9.6375,20.9518734 9.94812656,21.2625 10.33125,21.2625 L20.04375,21.2625 C20.4268734,21.2625 20.7375,20.9518734 20.7375,20.56875 L20.7375,10.85625 C20.7375,10.4731266 20.4268734,10.1625 20.04375,10.1625 L17.26875,10.1625 L17.26875,8.775 L20.04375,8.775 C21.1932938,8.775 22.125,9.70670625 22.125,10.85625 L22.125,10.85625 Z M18.4529813,13.8345187 C18.1820719,13.5636094 17.7427547,13.5636094 17.4720188,13.8345187 L15.88125,15.4251141 L15.88125,6.69392344 L15.88125,6.69375 C15.88125,6.31062656 15.5706234,6 15.1875,6 C14.8043766,6 14.49375,6.31062656 14.49375,6.69375 L14.49375,15.4251141 L12.9029813,13.8345188 C12.6320719,13.5636094 12.1927547,13.5636094 11.9220188,13.8345188 C11.6511094,14.1054281 11.6511094,14.5447453 11.9220188,14.8154812 L14.6970188,17.5904812 C14.8270969,17.7205594 15.0034828,17.79375 15.1875,17.79375 C15.3715172,17.79375 15.5479031,17.7205594 15.6779813,17.5904812 L18.4529813,14.8154812 C18.7240641,14.5447453 18.7240641,14.1052547 18.4529813,13.8345187 L18.4529813,13.8345187 Z" id="icn-download"></path>
                </g>
            </g>
        </g>
    </g>
</svg>