<?xml version="1.0" encoding="UTF-8" standalone="no"?>
<svg width="23px" height="18px" viewBox="0 0 23 18" version="1.1" xmlns="http://www.w3.org/2000/svg" xmlns:xlink="http://www.w3.org/1999/xlink">
    <!-- Generator: Sketch 3.6.1 (26313) - http://www.bohemiancoding.com/sketch -->
    <title>icn-layers</title>
    <desc>Created with Sketch.</desc>
    <defs></defs>
    <g id="Page-1" stroke="none" stroke-width="1" fill="none" fill-rule="evenodd">
        <g id="explore" transform="translate(-604.000000, -641.000000)" fill="#FFFFFF">
            <g id="//-CONTENT-//" transform="translate(135.000000, 110.000000)">
                <g id="::-places" transform="translate(0.000000, 460.000000)">
                    <g id="::-options" transform="translate(0.000000, 50.000000)">
                        <path d="M479.406574,31.8014062 C479.912824,32.1535313 480.587824,32.1535313 481.094074,31.8014062 L491.318074,25.8602812 C491.583574,25.6757812 491.554324,25.2775313 491.264074,25.1335313 L480.908449,21.1544063 C480.494449,20.9485312 480.006199,20.9485312 479.592199,21.1544063 L469.236574,25.1335312 C468.946324,25.2764063 468.917074,25.6757812 469.182574,25.8602812 L479.406574,31.8014062 L479.406574,31.8014062 Z M491.264074,30.9126562 L488.467324,29.5255312 L482.026699,33.2684062 C481.499074,33.6160312 480.885949,33.7982812 480.250324,33.7982812 C479.614699,33.7982812 479.001574,33.6149062 478.473949,33.2684062 L472.037824,29.5232812 L469.236574,30.9115312 C468.946324,31.0555312 468.917074,31.4537812 469.182574,31.6382812 L479.406574,38.7359062 C479.912824,39.0880312 480.587824,39.0880312 481.094074,38.7359062 L491.318074,31.6382812 C491.583574,31.4549062 491.554324,31.0566562 491.264074,30.9126562 L491.264074,30.9126562 Z" id="icn-layers"></path>
                    </g>
                </g>
            </g>
        </g>
    </g>
</svg>