<?xml version="1.0" encoding="UTF-8" standalone="no"?>
<svg width="18px" height="16px" viewBox="0 0 18 16" version="1.1" xmlns="http://www.w3.org/2000/svg" xmlns:xlink="http://www.w3.org/1999/xlink">
    <!-- Generator: Sketch 3.6.1 (26313) - http://www.bohemiancoding.com/sketch -->
    <title>icn-print</title>
    <desc>Created with Sketch.</desc>
    <defs></defs>
    <g id="Page-1" stroke="none" stroke-width="1" fill="none" fill-rule="evenodd">
        <g id="explore-places-all" transform="translate(-1035.000000, -817.000000)" fill="#D1CDC7">
            <g id="//-FEED-//" transform="translate(135.000000, 780.000000)">
                <g id="::-actions" transform="translate(857.000000, 30.000000)">
                    <path d="M58.2034096,13.6909093 L56.6556823,13.6909093 L56.6556823,9.82159099 C56.6556823,8.53891197 55.6167703,7.5 54.3340913,7.5 L49.6909093,7.5 C48.4082303,7.5 47.3693183,8.53891197 47.3693183,9.82159099 L47.3693183,13.6909093 L45.821591,13.6909093 C44.538912,13.6909093 43.5,14.7298213 43.5,16.0125003 L43.5,19.1079549 C43.5,20.390634 44.538912,21.4295459 45.821591,21.4295459 L47.5041641,21.4295459 C47.8229959,22.3305167 48.6804368,22.9772732 49.6909093,22.9772732 L54.3340913,22.9772732 C55.3445638,22.9772732 56.2014243,22.3305167 56.5208365,21.4295459 L58.2034096,21.4295459 C59.4860886,21.4295459 60.5250006,20.390634 60.5250006,19.1079549 L60.5250006,16.0125003 C60.5250006,14.7298213 59.4860886,13.6909093 58.2034096,13.6909093 L58.2034096,13.6909093 Z M48.9170456,9.82159099 C48.9170456,9.39403131 49.2633496,9.04772732 49.6909093,9.04772732 L54.3340913,9.04772732 C54.7616509,9.04772732 55.1079549,9.39403131 55.1079549,9.82159099 L55.1079549,13.6909093 L48.9170456,13.6909093 L48.9170456,9.82159099 L48.9170456,9.82159099 Z M54.3340913,21.4295459 L49.6909093,21.4295459 C49.2635431,21.4295459 48.9170456,21.0830485 48.9170456,20.6556823 C48.9170456,20.2283161 49.2635431,19.8818186 49.6909093,19.8818186 L54.3340913,19.8818186 C54.7614575,19.8818186 55.1079549,20.2283161 55.1079549,20.6556823 C55.1079549,21.0830485 54.7614575,21.4295459 54.3340913,21.4295459 L54.3340913,21.4295459 Z M58.9772732,19.1079549 C58.9772732,19.5355146 58.6309693,19.8818186 58.2034096,19.8818186 L56.5208365,19.8818186 C56.2021982,18.9808478 55.3445638,18.3340913 54.3340913,18.3340913 L49.6909093,18.3340913 C48.6804368,18.3340913 47.8235763,18.9808478 47.5041641,19.8818186 L45.821591,19.8818186 C45.3940313,19.8818186 45.0477273,19.5355146 45.0477273,19.1079549 L45.0477273,16.0125003 C45.0477273,15.5849406 45.3940313,15.2386366 45.821591,15.2386366 L58.2034096,15.2386366 C58.6309693,15.2386366 58.9772732,15.5849406 58.9772732,16.0125003 L58.9772732,19.1079549 L58.9772732,19.1079549 Z" id="icn-print"></path>
                </g>
            </g>
        </g>
    </g>
</svg>