<?xml version="1.0" encoding="UTF-8" standalone="no"?>
<svg width="22px" height="20px" viewBox="0 0 22 20" version="1.1" xmlns="http://www.w3.org/2000/svg" xmlns:xlink="http://www.w3.org/1999/xlink" xmlns:sketch="http://www.bohemiancoding.com/sketch/ns">
    <!-- Generator: Sketch 3.5.2 (25235) - http://www.bohemiancoding.com/sketch -->
    <title>Shape</title>
    <desc>Created with Sketch.</desc>
    <defs></defs>
    <g id="Page-1" stroke="none" stroke-width="1" fill="none" fill-rule="evenodd" sketch:type="MSPage">
        <g id="home-rural" sketch:type="MSArtboardGroup" transform="translate(-452.000000, -521.000000)" fill="#C34500">
            <g id="//-CONTENT-//" sketch:type="MSLayerGroup" transform="translate(0.000000, 80.000000)">
                <g id="::-topics" transform="translate(135.000000, 225.000000)" sketch:type="MSShapeGroup">
                    <path d="M325,228 C322.794,228 321,226.206 321,224 C321,221.794 322.794,220 325,220 C327.206,220 329,221.794 329,224 C329,226.206 327.206,228 325,228 L325,228 Z M325,222 C323.897,222 323,222.896 323,224 C323,225.103 323.897,226 325,226 C326.103,226 327,225.103 327,224 C327,222.896 326.103,222 325,222 Z M333,236 L317,236 L317,235 C317,231.467 320.29,229 325,229 C329.71,229 333,231.467 333,235 L333,236 Z M319.159,234 L330.842,234 C330.244,232.192 328.009,231 325.001,231 C321.993,231 319.757,232.192 319.159,234 Z M339,219 L336,219 L336,216 L334,216 L334,219 L331,219 L331,221 L334,221 L334,224 L336,224 L336,221 L339,221 L339,219 Z" id="Shape"></path>
                </g>
            </g>
        </g>
    </g>
</svg>