<?xml version="1.0" encoding="UTF-8" standalone="no"?>
<svg width="20px" height="20px" viewBox="0 0 20 20" version="1.1" xmlns="http://www.w3.org/2000/svg" xmlns:xlink="http://www.w3.org/1999/xlink" xmlns:sketch="http://www.bohemiancoding.com/sketch/ns">
    <!-- Generator: Sketch 3.5.2 (25235) - http://www.bohemiancoding.com/sketch -->
    <title>Shape</title>
    <desc>Created with Sketch.</desc>
    <defs></defs>
    <g id="Page-1" stroke="none" stroke-width="1" fill="none" fill-rule="evenodd" sketch:type="MSPage">
        <g id="home-rural" sketch:type="MSArtboardGroup" transform="translate(-162.000000, -580.000000)" fill="#C34500">
            <g id="//-CONTENT-//" sketch:type="MSLayerGroup" transform="translate(0.000000, 80.000000)">
                <g id="::-topics" transform="translate(135.000000, 225.000000)" sketch:type="MSShapeGroup">
                    <path d="M46.656,293.293 L41.293,287.93 C42.396,286.528 43,284.812 43,283 C43,280.863 42.167,278.854 40.656,277.344 C39.146,275.833 37.137,275 35,275 C32.863,275 30.854,275.833 29.344,277.343 C27.833,278.854 27,280.863 27,283 C27,285.137 27.833,287.146 29.344,288.656 C30.854,290.168 32.863,291 35,291 C36.787,291 38.48,290.411 39.872,289.336 L45.243,294.706 L46.656,293.293 L46.656,293.293 Z M30.758,287.242 C29.624,286.11 29,284.603 29,283 C29,281.396 29.624,279.891 30.758,278.758 C31.891,277.624 33.397,277 35,277 C36.603,277 38.109,277.624 39.242,278.759 C40.376,279.891 41,281.396 41,283 C41,284.603 40.376,286.11 39.242,287.243 C38.109,288.376 36.603,289 35,289 C33.397,289 31.891,288.376 30.758,287.242 Z M31.949,287 C31.949,285.159 33.108,284 34.949,284 C36.79,284 37.949,285.159 37.949,287 L31.949,287 Z M34.949,283 C36.0535695,283 36.949,282.104569 36.949,281 C36.949,279.895431 36.0535695,279 34.949,279 C33.8444305,279 32.949,279.895431 32.949,281 C32.949,282.104569 33.8444305,283 34.949,283 Z" id="Shape"></path>
                </g>
            </g>
        </g>
    </g>
</svg>