<?xml version="1.0" encoding="UTF-8" standalone="no"?>
<svg width="31px" height="31px" viewBox="0 0 31 31" version="1.1" xmlns="http://www.w3.org/2000/svg" xmlns:xlink="http://www.w3.org/1999/xlink">
    <!-- Generator: Sketch 3.8.3 (29802) - http://www.bohemiancoding.com/sketch -->
    <title>Group</title>
    <desc>Created with Sketch.</desc>
    <defs></defs>
    <g id="Page-1" stroke="none" stroke-width="1" fill="none" fill-rule="evenodd">
        <g id="home-rural" transform="translate(-424.000000, -1403.000000)">
            <g id="//-CONTENT-//" transform="translate(0.000000, 80.000000)">
                <g id="::-feat-data" transform="translate(135.000000, 1255.000000)">
                    <g id="::-graph-small" transform="translate(0.000000, 45.000000)">
                        <g id="::-legend" transform="translate(18.824561, 23.151471)">
                            <g id="Group" transform="translate(271.000000, 0.000000)">
                                <path d="M0,3.9992748 C0,1.79053632 1.78679466,6.66133815e-17 3.9992748,6.66133815e-17 L26.0007252,6.66133815e-17 C28.2094637,6.66133815e-17 30,1.78679466 30,3.9992748 L30,26.0007252 C30,28.2094637 28.2132053,30 26.0007252,30 L3.9992748,30 C1.79053632,30 0,28.2132053 0,26.0007252 L0,3.9992748 Z" id="Rectangle-403" fill="#98BD85"></path>
                                <path d="M24.7916343,15.3341782 C24.4547151,16.7340903 21.6183259,17.3139047 17.9304976,16.9090793 C17.8364737,16.8986322 17.7424497,16.9404207 17.6876024,17.0161622 L13.3546653,23.198237 C13.148335,23.4933677 12.6860505,23.3810613 12.6364268,23.0258597 L11.6674577,16.13077 C12.5737442,16.3135943 13.474807,16.3658298 14.0467861,16.3788887 C14.1251394,16.3815005 14.1381982,16.2691941 14.0650685,16.2509117 C13.2345236,16.0341342 5.52194781,12.9156732 6.02340888,10.8210285 C6.39610938,9.26362621 9.87316733,8.7263838 14.1695396,9.42372811 L14.3262461,7.24289479 C14.3366932,7.08096465 14.4907881,6.96865827 14.6474946,7.00783491 L18.8472311,8.01598061 C19.0039377,8.05515726 19.0875146,8.22231095 19.0248319,8.37118221 L18.2830874,10.126296 C18.2230166,10.2673319 18.2987581,10.4266503 18.4424058,10.4736622 C22.4410355,11.80828 25.157283,13.8115125 24.7916343,15.3341782" id="Page-1" fill="#FFFFFF"></path>
                            </g>
                        </g>
                    </g>
                </g>
            </g>
        </g>
    </g>
</svg>